<svg width="168" height="168" viewBox="0 0 168 168" fill="none" xmlns="http://www.w3.org/2000/svg">
<path d="M166.32 84C166.32 129.464 129.464 166.32 84 166.32C38.5359 166.32 1.68 129.464 1.68 84C1.68 38.5359 38.5359 1.68 84 1.68C129.464 1.68 166.32 38.5359 166.32 84Z" fill="white" stroke="#FF5200" stroke-width="3.36"/>
<rect x="48.72" y="38.6402" width="70.56" height="90.72" rx="5.04" stroke="#FF5200" stroke-width="3.36" stroke-linecap="round" stroke-linejoin="round"/>
<path d="M104.415 103.252L130.455 58.1494L139.185 63.1894L113.145 108.292L102.227 117.508L104.415 103.252Z" fill="white" stroke="#FF5200" stroke-width="3.36" stroke-linecap="round" stroke-linejoin="round"/>
<rect x="58.7998" y="50.4" width="13.44" height="13.44" rx="3.36" stroke="#FF5200" stroke-width="3.36" stroke-linecap="round" stroke-linejoin="round"/>
<rect x="58.7998" y="73.9199" width="13.44" height="13.44" rx="3.36" stroke="#FF5200" stroke-width="3.36" stroke-linecap="round" stroke-linejoin="round"/>
<path d="M62.4033 78.96L65.5205 82.32L72.1929 75.6" stroke="#FF5200" stroke-width="3.36" stroke-linecap="round" stroke-linejoin="round"/>
<path d="M82.3203 53.7601H107.458" stroke="#FF5200" stroke-width="3.36" stroke-linecap="square" stroke-linejoin="round"/>
<path d="M82.3203 58.8002H94.018" stroke="#FF5200" stroke-width="3.36" stroke-linecap="square" stroke-linejoin="round"/>
<path d="M82.3203 77.28H107.458" stroke="#FF5200" stroke-width="3.36" stroke-linecap="square" stroke-linejoin="round"/>
<path d="M82.3203 82.3201H94.018" stroke="#FF5200" stroke-width="3.36" stroke-linecap="square" stroke-linejoin="round"/>
<path d="M82.3203 100.8H95.698" stroke="#FF5200" stroke-width="3.36" stroke-linecap="square" stroke-linejoin="round"/>
<rect x="58.7998" y="97.4398" width="13.44" height="13.44" rx="3.36" stroke="#FF5200" stroke-width="3.36" stroke-linecap="round" stroke-linejoin="round"/>
<path d="M62.4033 102.48L65.5205 105.84L72.1929 99.1199" stroke="#FF5200" stroke-width="3.36" stroke-linecap="round" stroke-linejoin="round"/>
</svg>
