<svg width="168" height="168" viewBox="0 0 168 168" fill="none" xmlns="http://www.w3.org/2000/svg">
<path d="M166.32 84C166.32 129.464 129.464 166.32 84 166.32C38.5359 166.32 1.68 129.464 1.68 84C1.68 38.5359 38.5359 1.68 84 1.68C129.464 1.68 166.32 38.5359 166.32 84Z" fill="white" stroke="#FF5200" stroke-width="3.36"/>
<path d="M59.1548 38.4414C59.8422 34.7953 63.3677 32.3271 67.0292 32.9287L118.628 41.4061C122.289 42.0077 124.7 45.4511 124.013 49.0973L108.845 129.557C108.157 133.204 104.632 135.672 100.97 135.07L49.3715 126.593C45.71 125.991 43.299 122.548 43.9864 118.902L59.1548 38.4414Z" fill="white" stroke="#FF5200" stroke-width="3.36" stroke-linecap="round" stroke-linejoin="round"/>
<path d="M81.0952 42.6387L79.426 42.4257L81.0952 42.6387ZM83.063 41.2603L83.4327 39.619L83.063 41.2603ZM82.4416 44.56L82.0719 46.2012L82.4416 44.56ZM93.9742 46.4489L94.3439 44.8076L93.9742 46.4489ZM95.9421 45.0705L94.2729 44.8574L94.2729 44.8574L95.9421 45.0705ZM94.5956 43.1492L94.2259 44.7904L94.5956 43.1492ZM99.6084 44.1121L99.9675 42.4692L99.6084 44.1121ZM98.9581 47.408L99.3172 45.765L98.9581 47.408ZM99.7642 47.5347L99.4051 49.1777L99.4051 49.1777L99.7642 47.5347ZM101.749 46.1477L103.415 46.3751L101.749 46.1477ZM100.415 44.2389L100.055 45.8818L100.415 44.2389ZM82.7644 42.8518C82.7649 42.8487 82.7641 42.8547 82.7577 42.8643C82.752 42.8729 82.7445 42.8806 82.7358 42.8867C82.7272 42.8928 82.7174 42.8972 82.7073 42.8996C82.6961 42.9023 82.6902 42.9011 82.6933 42.9016L83.4327 39.619C81.5793 39.3155 79.7735 40.5804 79.426 42.4257L82.7644 42.8518ZM82.8113 42.9187C82.8083 42.9183 82.7936 42.9151 82.7776 42.8924C82.7617 42.8696 82.7638 42.8547 82.7644 42.8518L79.426 42.4257C79.0871 44.2253 80.2643 45.9052 82.0719 46.2012L82.8113 42.9187ZM94.3439 44.8076L82.8113 42.9187L82.0719 46.2012L93.6045 48.0901L94.3439 44.8076ZM94.2729 44.8574C94.2723 44.8605 94.2732 44.8545 94.2795 44.8449C94.2852 44.8363 94.2927 44.8286 94.3014 44.8225C94.31 44.8164 94.3199 44.812 94.3299 44.8096C94.3411 44.8069 94.347 44.8081 94.3439 44.8076L93.6045 48.0901C95.458 48.3937 97.2637 47.1288 97.6113 45.2835L94.2729 44.8574ZM94.2259 44.7904C94.2289 44.7909 94.2436 44.794 94.2596 44.8168C94.2755 44.8396 94.2734 44.8545 94.2729 44.8574L97.6113 45.2835C97.9502 43.4839 96.7729 41.804 94.9653 41.5079L94.2259 44.7904ZM82.6933 42.9016L94.2259 44.7904L94.9653 41.5079L83.4327 39.619L82.6933 42.9016ZM99.2902 45.7265C99.2908 45.7235 99.2903 45.7274 99.286 45.7339C99.2824 45.7393 99.2781 45.7435 99.2738 45.7465C99.2694 45.7495 99.264 45.7521 99.2577 45.7536C99.2502 45.7555 99.2463 45.7546 99.2493 45.7551L99.9675 42.4692C98.1213 42.1789 96.3191 43.4384 95.9574 45.2718L99.2902 45.7265ZM99.3172 45.765C99.314 45.7645 99.3126 45.7639 99.3105 45.7626C99.3075 45.7607 99.3025 45.7566 99.2978 45.7499C99.2931 45.7432 99.291 45.7371 99.2902 45.7336C99.2897 45.7312 99.2896 45.7297 99.2902 45.7265L95.9574 45.2718C95.6008 47.079 96.7792 48.7648 98.599 49.051L99.3172 45.765ZM100.123 45.8918L99.3172 45.765L98.599 49.051L99.4051 49.1777L100.123 45.8918ZM100.082 45.9204C100.082 45.9234 100.082 45.9194 100.087 45.913C100.09 45.9076 100.095 45.9034 100.099 45.9004C100.103 45.8974 100.109 45.8948 100.115 45.8932C100.122 45.8914 100.126 45.8923 100.123 45.8918L99.4051 49.1777C101.251 49.468 103.054 48.2085 103.415 46.3751L100.082 45.9204ZM100.055 45.8818C100.059 45.8823 100.06 45.8829 100.062 45.8842C100.065 45.8862 100.07 45.8903 100.075 45.897C100.08 45.9037 100.082 45.9098 100.082 45.9133C100.083 45.9157 100.083 45.9172 100.082 45.9204L103.415 46.3751C103.772 44.5679 102.593 42.8821 100.774 42.5959L100.055 45.8818ZM99.2493 45.7551L100.055 45.8818L100.774 42.5959L99.9675 42.4692L99.2493 45.7551Z" fill="#FF5200"/>
<path d="M82.7327 119.541C82.1946 122.392 79.548 124.24 76.9169 123.808C74.2858 123.376 72.475 120.797 73.0131 117.946C73.5511 115.095 76.1978 113.247 78.8289 113.679C81.4599 114.111 83.2708 116.69 82.7327 119.541Z" stroke="#FF5200" stroke-width="3.36" stroke-linecap="round" stroke-linejoin="round"/>
<path fill-rule="evenodd" clip-rule="evenodd" d="M49.7265 44.0768L54.939 57.6418L68.4784 62.8799L54.7454 68.5654L49.0489 82.3094L43.8364 68.7444L30.2969 63.5064L44.03 57.8208L49.7265 44.0768Z" fill="white" stroke="#FF5200" stroke-width="3.36" stroke-linejoin="round"/>
<path fill-rule="evenodd" clip-rule="evenodd" d="M126.478 83.2237L129.888 92.097L138.744 95.5234L129.761 99.2425L126.035 108.233L122.625 99.3596L113.769 95.9332L122.752 92.2141L126.478 83.2237Z" fill="white" stroke="#FF5200" stroke-width="3.36" stroke-linejoin="round"/>
</svg>
