<svg width="168" height="168" viewBox="0 0 168 168" fill="none" xmlns="http://www.w3.org/2000/svg">
<path d="M166.32 84C166.32 129.464 129.464 166.32 84 166.32C38.5359 166.32 1.68 129.464 1.68 84C1.68 38.5359 38.5359 1.68 84 1.68C129.464 1.68 166.32 38.5359 166.32 84Z" fill="white" stroke="#FF5200" stroke-width="3.36"/>
<rect x="31.9202" y="110.88" width="104.16" height="6.72" rx="3.36" stroke="#FF5200" stroke-width="3.36" stroke-linecap="round" stroke-linejoin="round"/>
<path d="M38.64 50.3999C38.64 48.5442 40.1443 47.0399 42 47.0399H126C127.856 47.0399 129.36 48.5442 129.36 50.3999V107.52C129.36 109.376 127.856 110.88 126 110.88H42C40.1443 110.88 38.64 109.376 38.64 107.52V50.3999Z" stroke="#FF5200" stroke-width="3.36" stroke-linecap="round" stroke-linejoin="round"/>
<path d="M38.64 58.7999C38.64 56.9442 40.1443 55.4399 42 55.4399H126C127.856 55.4399 129.36 56.9442 129.36 58.7999V99.1199C129.36 100.976 127.856 102.48 126 102.48H42C40.1443 102.48 38.64 100.976 38.64 99.1199V58.7999Z" stroke="#FF5200" stroke-width="3.36" stroke-linecap="round" stroke-linejoin="round"/>
<path d="M77.2803 68.8802L92.5724 78.7657L77.2803 88.6512L77.2803 68.8802Z" stroke="#FF5200" stroke-width="3.36" stroke-linecap="round" stroke-linejoin="round"/>
</svg>
