<svg width="113" height="111" viewBox="0 0 113 111" fill="none" xmlns="http://www.w3.org/2000/svg">
<path d="M91.1327 16.5804L93.2891 16.9476C93.3338 16.6853 93.3302 16.417 93.2786 16.156L91.1327 16.5804ZM90.1992 13.3618L92.2397 12.5734L92.2382 12.5694L90.1992 13.3618ZM78.9434 3L79.4411 0.869872C78.5332 0.657753 77.5907 1.04433 77.0933 1.83283L78.9434 3ZM89.0233 28.9666L88.5256 31.0968C89.1131 31.234 89.7311 31.1226 90.2336 30.7888C90.7362 30.455 91.0785 29.9286 91.1798 29.3339L89.0233 28.9666ZM103.749 37.2798L105.541 38.5349C105.7 38.307 105.815 38.0506 105.879 37.7796L103.749 37.2798ZM104.185 34.5098L102.006 34.3271L102.005 34.3293L104.185 34.5098ZM98.6727 19.9536L100.102 18.2977C99.3902 17.6831 98.3651 17.5924 97.5563 18.0724L98.6727 19.9536ZM90.8264 33.3005L93.0062 33.4832L93.0062 33.4831L90.8264 33.3005ZM96.3391 47.8568L94.9097 49.5127C95.3779 49.9168 95.9954 50.1039 96.6092 50.0275C97.223 49.9512 97.7758 49.6185 98.1307 49.1119L96.3391 47.8568ZM104.685 63.4918L105.604 65.4769C105.836 65.3693 106.048 65.2217 106.229 65.0409L104.685 63.4918ZM107.43 59.9671L109.307 61.092L109.307 61.0916L107.43 59.9671ZM108.867 44.3896L110.888 43.5531C110.535 42.6992 109.683 42.1595 108.76 42.2047L108.867 44.3896ZM94.623 68.1499L92.602 68.9871C92.8299 69.5374 93.2725 69.9709 93.8273 70.1876C94.3822 70.4042 95.0014 70.3852 95.542 70.135L94.623 68.1499ZM94.8649 86.1399L94.7159 88.3223C94.9696 88.3396 95.2243 88.3126 95.4687 88.2424L94.8649 86.1399ZM99.229 84.1851L100.388 86.0401L100.391 86.0384L99.229 84.1851ZM107.294 70.9806L109.477 71.1145C109.532 70.2201 109.036 69.3826 108.225 69.0011L107.294 70.9806ZM92.3191 72.211L91.1587 70.3567L91.1584 70.3568L92.3191 72.211ZM84.2515 85.4156L82.0681 85.2815C81.9945 86.4816 82.9031 87.5161 84.1026 87.598L84.2515 85.4156ZM67.4843 95.8955L65.5837 94.8125C65.1472 95.5784 65.2132 96.5314 65.7509 97.2299L67.4843 95.8955ZM81.3677 101.881L81.2089 99.6993L81.2078 99.6994L81.3677 101.881ZM94.3086 93.9316L96.21 95.0131C96.6453 94.2478 96.5793 93.2961 96.0426 92.5981L94.3086 93.9316ZM80.4282 87.9491L80.588 90.1308L80.5892 90.1307L80.4282 87.9491ZM67.4841 95.8956L68.6772 97.7291C69.5495 97.1614 69.9012 96.0577 69.5179 95.09C69.1346 94.1224 68.1226 93.5588 67.0982 93.7424L67.4841 95.8956ZM48.882 108L46.806 107.31C46.5129 108.193 46.8095 109.164 47.5454 109.732C48.2813 110.3 49.2958 110.341 50.075 109.834L48.882 108ZM21.9334 16.5804L19.7875 16.156C19.7358 16.417 19.7323 16.6853 19.777 16.9476L21.9334 16.5804ZM22.8669 13.3618L20.8279 12.5694L20.8264 12.5734L22.8669 13.3618ZM34.1227 3L35.9728 1.83283C35.4754 1.04433 34.5328 0.657753 33.625 0.869872L34.1227 3ZM24.0427 28.9666L21.8863 29.3339C21.9876 29.9286 22.3299 30.455 22.8325 30.7888C23.335 31.1226 23.953 31.234 24.5405 31.0968L24.0427 28.9666ZM9.31697 37.2798L7.18733 37.7796C7.25093 38.0506 7.36567 38.307 7.52538 38.5349L9.31697 37.2798ZM8.88055 34.5098L11.0606 34.3293L11.0604 34.3271L8.88055 34.5098ZM14.3933 19.9536L15.5097 18.0724C14.7009 17.5924 13.6758 17.6831 12.9639 18.2977L14.3933 19.9536ZM22.2397 33.3005L20.0598 33.4831L20.0598 33.4832L22.2397 33.3005ZM16.7269 47.8568L14.9353 49.1119C15.2902 49.6185 15.843 49.9512 16.4568 50.0275C17.0707 50.1039 17.6881 49.9168 18.1563 49.5127L16.7269 47.8568ZM8.37986 63.4918L6.83536 65.0409C7.01673 65.2217 7.22844 65.3693 7.46086 65.4769L8.37986 63.4918ZM5.63409 59.9671L3.75772 61.0916L3.75794 61.092L5.63409 59.9671ZM4.20059 44.3896L4.30766 42.2047C3.38507 42.1595 2.53351 42.6987 2.17981 43.552L4.20059 44.3896ZM18.4416 68.1499L17.5226 70.135C18.0632 70.3852 18.6824 70.4042 19.2373 70.1876C19.7921 69.9709 20.2346 69.5374 20.4626 68.9871L18.4416 68.1499ZM18.1982 86.1399L17.5944 88.2424C17.8387 88.3126 18.0934 88.3396 18.3471 88.3223L18.1982 86.1399ZM13.837 84.1851L12.6755 86.0387L12.6759 86.039L13.837 84.1851ZM5.76642 70.9806L4.83576 69.0009C4.02417 69.3824 3.52766 70.2207 3.5831 71.1158L5.76642 70.9806ZM20.7439 72.211L21.9046 70.3568L21.9043 70.3567L20.7439 72.211ZM28.8145 85.4156L28.9634 87.598C30.1635 87.5161 31.0723 86.4807 30.9978 85.2802L28.8145 85.4156ZM45.5811 95.8955L47.3145 97.2299C47.852 96.5317 47.9181 95.5792 47.4823 94.8135L45.5811 95.8955ZM31.7008 101.881L31.8607 99.6994L31.8594 99.6993L31.7008 101.881ZM18.7568 93.9316L17.0228 92.5981C16.4861 93.2961 16.4201 94.2478 16.8554 95.0131L18.7568 93.9316ZM32.6403 87.9491L32.4793 90.1307L32.4803 90.1308L32.6403 87.9491ZM45.5815 95.8956L45.9674 93.7424C44.943 93.5588 43.931 94.1224 43.5477 95.09C43.1644 96.0577 43.516 97.1614 44.3884 97.7291L45.5815 95.8956ZM64.1836 108L62.9906 109.834C63.7697 110.341 64.7843 110.3 65.5202 109.732C66.2561 109.164 66.5526 108.193 66.2596 107.31L64.1836 108ZM93.2786 16.156C93.0422 14.9604 92.698 13.7596 92.2397 12.5734L88.1587 14.1502C88.5248 15.0976 88.7989 16.0546 88.9867 17.0047L93.2786 16.156ZM92.2382 12.5694C89.8714 6.47911 84.9827 2.16468 79.4411 0.869872L78.4457 5.13013C82.4506 6.06588 86.266 9.2796 88.1603 14.1542L92.2382 12.5694ZM77.0933 1.83283C74.0133 6.71502 73.3623 13.2984 75.7282 19.3934L79.8067 17.8102C77.9116 12.9282 78.4971 7.80718 80.7935 4.16717L77.0933 1.83283ZM75.7282 19.3934C78.0951 25.4907 82.9843 29.802 88.5256 31.0968L89.521 26.8365C85.5158 25.9007 81.701 22.6899 79.8067 17.8102L75.7282 19.3934ZM91.1798 29.3339L93.2891 16.9476L88.9762 16.2131L86.8669 28.5994L91.1798 29.3339ZM105.879 37.7796C106.112 36.7845 106.278 35.7504 106.366 34.6903L102.005 34.3293C101.936 35.1724 101.804 35.9931 101.619 36.78L105.879 37.7796ZM106.365 34.6925C106.913 28.1571 104.441 22.0431 100.102 18.2977L97.2433 21.6094C100.439 24.3678 102.446 29.0732 102.006 34.3271L106.365 34.6925ZM97.5563 18.0724C92.6449 20.987 89.1941 26.5807 88.6465 33.118L93.0062 33.4831C93.4466 28.2251 96.2026 23.9631 99.7891 21.8347L97.5563 18.0724ZM88.6465 33.1179C88.0988 39.6532 90.5708 45.7672 94.9097 49.5127L97.7685 46.2009C94.5732 43.4426 92.5659 38.7372 93.0062 33.4832L88.6465 33.1179ZM98.1307 49.1119L105.541 38.5349L101.957 36.0247L94.5475 46.6016L98.1307 49.1119ZM106.229 65.0409C107.382 63.8913 108.421 62.5697 109.307 61.092L105.554 58.8423C104.852 60.0134 104.036 61.0496 103.14 61.9427L106.229 65.0409ZM109.307 61.0916C112.655 55.5041 113.102 48.9019 110.888 43.5531L106.846 45.2261C108.505 49.2359 108.225 54.3866 105.554 58.8427L109.307 61.0916ZM108.76 42.2047C103.078 42.483 97.5312 45.8562 94.1804 51.4444L97.9325 53.6943C100.601 49.2449 104.879 46.775 108.974 46.5745L108.76 42.2047ZM94.1804 51.4444C90.8313 57.0295 90.385 63.6353 92.602 68.9871L96.6439 67.3127C94.9816 63.2998 95.2627 58.1467 97.9325 53.6943L94.1804 51.4444ZM95.542 70.135L105.604 65.4769L103.766 61.5067L93.7039 66.1648L95.542 70.135ZM95.4687 88.2424C97.1542 87.7584 98.8109 87.026 100.388 86.0401L98.0696 82.3301C96.8347 83.102 95.5516 83.6668 94.2611 84.0374L95.4687 88.2424ZM100.391 86.0384C105.845 82.6186 109.121 76.9202 109.477 71.1145L105.11 70.8466C104.842 75.2179 102.347 79.6479 98.0669 82.3318L100.391 86.0384ZM108.225 69.0011C103.054 66.5685 96.6181 66.9403 91.1587 70.3567L93.4795 74.0654C97.7546 71.3901 102.617 71.1982 106.362 72.96L108.225 69.0011ZM91.1584 70.3568C85.6995 73.7742 82.4243 79.4797 82.0681 85.2815L86.4349 85.5496C86.7031 81.1805 89.1982 76.7455 93.4798 74.0652L91.1584 70.3568ZM84.1026 87.598L94.7159 88.3223L95.0138 83.9575L84.4005 83.2331L84.1026 87.598ZM65.7509 97.2299C69.2701 101.801 75.1429 104.53 81.5275 104.063L81.2078 99.6994C76.2578 100.062 71.8203 97.942 69.2176 94.5611L65.7509 97.2299ZM81.5264 104.063C87.907 103.598 93.3491 100.043 96.21 95.0131L92.4071 92.8502C90.2796 96.5907 86.1569 99.3393 81.2089 99.6993L81.5264 104.063ZM96.0426 92.5981C92.526 88.0255 86.6492 85.2963 80.2671 85.7676L80.5892 90.1307C85.5357 89.7655 89.9753 91.8854 92.5745 95.2652L96.0426 92.5981ZM80.2683 85.7675C73.886 86.2351 68.4478 89.7863 65.5837 94.8125L69.3848 96.9786C71.5152 93.2401 75.6357 90.4936 80.588 90.1308L80.2683 85.7675ZM67.0982 93.7424C62.6274 94.5437 58.0642 96.6095 54.4297 99.032C52.6046 100.248 50.9659 101.586 49.664 102.951C48.3882 104.289 47.3153 105.777 46.806 107.31L50.9579 108.69C51.179 108.024 51.7673 107.085 52.8297 105.971C53.8661 104.885 55.2426 103.748 56.8562 102.672C60.099 100.511 64.1065 98.7233 67.87 98.0488L67.0982 93.7424ZM50.075 109.834L68.6772 97.7291L66.291 94.0621L47.6889 106.166L50.075 109.834ZM24.0794 17.0047C24.2672 16.0546 24.5413 15.0976 24.9073 14.1502L20.8264 12.5734C20.368 13.7596 20.0239 14.9604 19.7875 16.156L24.0794 17.0047ZM24.9058 14.1542C26.8001 9.2796 30.6155 6.06588 34.6204 5.13013L33.625 0.869872C28.0833 2.16468 23.1947 6.4791 20.8279 12.5694L24.9058 14.1542ZM32.2726 4.16717C34.569 7.80718 35.1545 12.9282 33.2593 17.8102L37.3378 19.3934C39.7038 13.2984 39.0528 6.71502 35.9728 1.83283L32.2726 4.16717ZM33.2593 17.8102C31.3651 22.6899 27.5502 25.9007 23.545 26.8365L24.5405 31.0968C30.0818 29.802 34.9709 25.4907 37.3378 19.3934L33.2593 17.8102ZM26.1992 28.5994L24.0899 16.2131L19.777 16.9476L21.8863 29.3339L26.1992 28.5994ZM11.4466 36.78C11.2619 35.9931 11.1304 35.1724 11.0606 34.3293L6.70051 34.6903C6.78829 35.7504 6.95378 36.7845 7.18733 37.7796L11.4466 36.78ZM11.0604 34.3271C10.6201 29.0732 12.6274 24.3678 15.8227 21.6094L12.9639 18.2977C8.62504 22.0431 6.153 28.1571 6.70069 34.6925L11.0604 34.3271ZM13.2769 21.8347C16.8635 23.9631 19.6194 28.2251 20.0598 33.4831L24.4195 33.118C23.872 26.5807 20.4211 20.987 15.5097 18.0724L13.2769 21.8347ZM20.0598 33.4832C20.5001 38.7372 18.4928 43.4426 15.2975 46.2009L18.1563 49.5127C22.4952 45.7672 24.9672 39.6532 24.4195 33.1179L20.0598 33.4832ZM18.5185 46.6016L11.1086 36.0247L7.52538 38.5349L14.9353 49.1119L18.5185 46.6016ZM9.92436 61.9427C9.02859 61.0496 8.21233 60.0134 7.51023 58.8423L3.75794 61.092C4.6439 62.5697 5.6824 63.8913 6.83536 65.0409L9.92436 61.9427ZM7.51045 58.8427C4.84001 54.3866 4.55954 49.2364 6.22136 45.2272L2.17981 43.552C-0.0375981 48.9015 0.409291 55.5041 3.75772 61.0916L7.51045 58.8427ZM4.09351 46.5745C8.18491 46.775 12.4639 49.2447 15.1321 53.6943L18.8842 51.4444C15.5335 45.8564 9.98709 42.483 4.30766 42.2047L4.09351 46.5745ZM15.1321 53.6943C17.8019 58.1467 18.083 63.2998 16.4207 67.3127L20.4626 68.9871C22.6795 63.6353 22.2333 57.0295 18.8842 51.4444L15.1321 53.6943ZM19.3606 66.1648L9.29886 61.5067L7.46086 65.4769L17.5226 70.135L19.3606 66.1648ZM18.8019 84.0374C17.5112 83.6667 16.2289 83.1021 14.9982 82.3312L12.6759 86.039C14.2516 87.0259 15.909 87.7584 17.5944 88.2424L18.8019 84.0374ZM14.9986 82.3315C10.7156 79.6476 8.22055 75.2175 7.94973 70.8453L3.5831 71.1158C3.94266 76.9205 7.21799 82.6189 12.6755 86.0387L14.9986 82.3315ZM6.69707 72.9602C10.4456 71.198 15.3087 71.3903 19.5835 74.0654L21.9043 70.3567C16.4447 66.9401 10.0095 66.5687 4.83576 69.0009L6.69707 72.9602ZM19.5832 74.0652C23.8647 76.7454 26.3604 81.1808 26.6312 85.5509L30.9978 85.2802C30.6383 79.4795 27.3637 73.7743 21.9046 70.3568L19.5832 74.0652ZM28.6656 83.2331L18.0493 83.9575L18.3471 88.3223L28.9634 87.598L28.6656 83.2331ZM43.8478 94.5611C41.245 97.9422 36.8074 100.062 31.8607 99.6994L31.5408 104.063C37.9227 104.531 43.7954 101.801 47.3145 97.2299L43.8478 94.5611ZM31.8594 99.6993C26.9082 99.3392 22.7857 96.5905 20.6583 92.8502L16.8554 95.0131C19.7164 100.043 25.1586 103.599 31.5421 104.063L31.8594 99.6993ZM20.4908 95.2652C23.09 91.8856 27.5294 89.7654 32.4793 90.1307L32.8013 85.7676C26.4164 85.2964 20.5396 88.0253 17.0228 92.5981L20.4908 95.2652ZM32.4803 90.1308C37.4302 90.4936 41.553 93.2404 43.68 96.9776L47.4823 94.8135C44.6209 89.786 39.1789 86.2351 32.8002 85.7675L32.4803 90.1308ZM45.1955 98.0488C48.9591 98.7233 52.9666 100.511 56.2094 102.672C57.823 103.748 59.1995 104.885 60.2359 105.971C61.2983 107.085 61.8866 108.024 62.1077 108.69L66.2596 107.31C65.7503 105.777 64.6774 104.289 63.4016 102.951C62.0997 101.586 60.4609 100.248 58.6358 99.032C55.0013 96.6095 50.4382 94.5437 45.9674 93.7424L45.1955 98.0488ZM65.3767 106.166L46.7745 94.0621L44.3884 97.7291L62.9906 109.834L65.3767 106.166Z" fill="#FF5200"/>
<path d="M61.5302 32.8433V73.5H56.3926V39.2584L46.034 43.0352V38.3975L60.7249 32.8433H61.5302Z" fill="#FF5200"/>
</svg>
