<svg width="40" height="40" viewBox="0 0 40 40" fill="none" xmlns="http://www.w3.org/2000/svg">
<path fill-rule="evenodd" clip-rule="evenodd" d="M14.3356 24.0462C13.8887 24.4931 13.8887 25.2178 14.3356 25.6647C14.7825 26.1116 15.5072 26.1116 15.9541 25.6647L20.0001 21.6187L24.0462 25.6648C24.4931 26.1118 25.2178 26.1118 25.6647 25.6648C26.1116 25.2179 26.1116 24.4933 25.6647 24.0463L21.6186 20.0002L25.6651 15.9537C26.112 15.5068 26.112 14.7821 25.6651 14.3352C25.2182 13.8883 24.4935 13.8883 24.0466 14.3352L20.0001 18.3817L15.9537 14.3354C15.5068 13.8884 14.7821 13.8884 14.3352 14.3354C13.8883 14.7823 13.8883 15.5069 14.3352 15.9539L18.3816 20.0002L14.3356 24.0462Z" fill="#B3B3B3"/>
<rect x="0.5" y="0.5" width="39" height="39" rx="19.5" stroke="#E6E6E6"/>
</svg>
