<svg width="69" height="69" viewBox="0 0 69 69" fill="none" xmlns="http://www.w3.org/2000/svg">
<g clip-path="url(#clip0_524_810)">
<path d="M34.5 69C53.5538 69 69 53.5538 69 34.5C69 15.4462 53.5538 0 34.5 0C15.4462 0 0 15.4462 0 34.5C0 53.5538 15.4462 69 34.5 69Z" fill="#2D2828"/>
<path d="M32.9812 18.7998H37.0292V40.8798H32.9812V18.7998ZM35.0052 51.4598C34.1159 51.4598 33.3492 51.1531 32.7052 50.5398C32.0919 49.8958 31.7852 49.1291 31.7852 48.2398C31.7852 47.3198 32.0919 46.5531 32.7052 45.9398C33.3492 45.3265 34.1159 45.0198 35.0052 45.0198C35.8945 45.0198 36.6459 45.3265 37.2592 45.9398C37.9032 46.5531 38.2252 47.3198 38.2252 48.2398C38.2252 49.1291 37.9032 49.8958 37.2592 50.5398C36.6459 51.1531 35.8945 51.4598 35.0052 51.4598Z" fill="white"/>
</g>
<defs>
<clipPath id="clip0_524_810">
<rect width="69" height="69" fill="white"/>
</clipPath>
</defs>
</svg>
