<svg width="16" height="16" viewBox="0 0 16 16" fill="none" xmlns="http://www.w3.org/2000/svg">
<path fill-rule="evenodd" clip-rule="evenodd" d="M8.00033 15.3334C3.95024 15.3334 0.666992 12.0502 0.666992 8.00008C0.666992 3.94999 3.95024 0.666748 8.00033 0.666748C12.0504 0.666748 15.3337 3.94999 15.3337 8.00008C15.3337 12.0502 12.0504 15.3334 8.00033 15.3334ZM8.00033 14.0001C11.314 14.0001 14.0003 11.3138 14.0003 8.00008C14.0003 4.68637 11.314 2.00008 8.00033 2.00008C4.68662 2.00008 2.00033 4.68637 2.00033 8.00008C2.00033 11.3138 4.68662 14.0001 8.00033 14.0001ZM8.00054 11.3323C7.63223 11.3323 7.33366 11.0338 7.33366 10.6656C7.33366 10.2975 7.63223 9.99898 8.00054 9.99898C8.36886 9.99898 8.66743 10.2975 8.66743 10.6656C8.66743 11.0338 8.36886 11.3323 8.00054 11.3323ZM8.66699 9.33341H7.33366C7.33366 8.19898 7.75005 7.7132 8.70218 7.23713C9.25005 6.9632 9.33366 6.86565 9.33366 6.33341C9.33366 5.70435 8.85177 5.33341 8.00033 5.33341C7.26395 5.33341 6.66699 5.93037 6.66699 6.66675H5.33366C5.33366 5.19399 6.52757 4.00008 8.00033 4.00008C9.52322 4.00008 10.667 4.8805 10.667 6.33341C10.667 7.46785 10.2506 7.95363 9.29847 8.4297C8.75061 8.70363 8.66699 8.80118 8.66699 9.33341Z" fill="#B3B3B3"/>
</svg>
