<svg width="72" height="72" viewBox="0 0 72 72" fill="none" xmlns="http://www.w3.org/2000/svg">
<circle cx="36" cy="36" r="36" fill="#FFF7F3"/>
<g clip-path="url(#clip0_1_304)">
<path d="M40.4618 34.987C42.3118 32.308 45.0158 29.7 46.4988 25.746C48.8998 32.146 54.4988 35.02 54.4998 40.378C54.4998 44.003 50.9508 48.146 46.4988 48.146C43.0058 48.146 40.0688 45.596 38.9658 42.746" stroke="#FF5200" stroke-width="1.6" stroke-linecap="round" stroke-linejoin="round"/>
<path d="M20.0208 43.192L17.7998 45.413" stroke="#515151" stroke-width="1.6" stroke-linecap="round" stroke-linejoin="round"/>
<path d="M18.9419 51.401L23.5859 46.757" stroke="#515151" stroke-width="1.6" stroke-linecap="round" stroke-linejoin="round"/>
<path d="M25.7389 39.451C25.4259 39.764 25.4269 40.271 25.7399 40.584L28.1799 43.014C28.4929 43.325 28.9979 43.325 29.3099 43.013L33.1889 39.134C33.5849 38.738 33.7449 38.163 33.6109 37.619L33.0939 35.529C32.7949 34.32 31.2899 33.901 30.4089 34.782L25.7379 39.453L25.7389 39.451Z" stroke="#515151" stroke-width="1.6" stroke-linecap="round" stroke-linejoin="round"/>
<path d="M36.3659 29.544L42.4329 23.477L48.1419 20.648L47.7649 17.8L39.6519 20.37L33.4219 26.6" stroke="#515151" stroke-width="1.6" stroke-linecap="round" stroke-linejoin="round"/>
<path d="M27.7438 28.908L27.7278 31.302L20.7558 38.275L20.9328 40.15L18.9548 42.128L24.5738 47.747L26.5518 45.769L28.0608 47.278C28.6858 47.903 29.6988 47.903 30.3238 47.278L37.7948 39.807C38.5208 39.081 38.6088 38.245 38.3208 37.267L37.3418 33.466L38.8138 31.994L31.7368 24.917L27.7438 28.91V28.908Z" stroke="#515151" stroke-width="1.6" stroke-linecap="round" stroke-linejoin="round"/>
</g>
<defs>
<clipPath id="clip0_1_304">
<rect width="38.301" height="35.201" fill="white" transform="translate(17 17)"/>
</clipPath>
</defs>
</svg>
