<svg width="25" height="18" viewBox="0 0 25 18" fill="none" xmlns="http://www.w3.org/2000/svg">
<path d="M19.2528 17.7316H15.3737H14.3292H14.1036V12.5285H15.8053C16.2368 12.5285 16.4918 12.0381 16.2368 11.685L12.9266 7.10468C12.7158 6.81045 12.2793 6.81045 12.0685 7.10468L8.75828 11.685C8.50327 12.0381 8.75337 12.5285 9.18982 12.5285H10.8915V17.7316H10.6659H9.62137H5.12444C2.54986 17.5894 0.5 15.1815 0.5 12.5726C0.5 10.7729 1.47589 9.20358 2.92256 8.3552C2.79015 7.99721 2.7215 7.6147 2.7215 7.21257C2.7215 5.37358 4.2074 3.88768 6.04638 3.88768C6.4436 3.88768 6.82611 3.95634 7.1841 4.08874C8.24826 1.83292 10.5433 0.268555 13.2111 0.268555C16.6635 0.273459 19.5078 2.9167 19.8314 6.28572C22.4845 6.74179 24.5 9.19868 24.5 11.9792C24.5 14.951 22.1853 17.5256 19.2528 17.7316Z" fill="#A7A9AC"/>
</svg>
