<svg width="168" height="168" viewBox="0 0 168 168" fill="none" xmlns="http://www.w3.org/2000/svg">
<g id="Group 254">
<path id="Oval" d="M166.32 84C166.32 129.464 129.464 166.32 84 166.32C38.5359 166.32 1.68 129.464 1.68 84C1.68 38.5359 38.5359 1.68 84 1.68C129.464 1.68 166.32 38.5359 166.32 84Z" fill="white" stroke="#FF5200" stroke-width="3.36"/>
<g id="Group 251">
<path id="Vector 19" d="M104.702 25.5966L103.152 24.0469L108.351 19.3207L119.251 30.2211L114.052 34.9473L113.088 33.9833L111.91 32.8049L110.722 33.9738L100.779 43.7583L99.5446 44.9729L100.796 46.1698L103.177 48.4476L75.0983 75.1895L73.8517 76.3768L75.069 77.594L79.4722 81.9972L74.8591 86.6103L51.3759 63.1271L55.9889 58.514L58.9944 61.5194L60.1391 62.6642L61.3255 61.5626L89.5188 35.383L92.028 37.7831L93.1839 38.8887L94.3448 37.7885L104.669 28.0039L105.922 26.8169L104.702 25.5966Z" fill="white" stroke="#FF5200" stroke-width="3.36"/>
<path id="Vector 20" d="M96.8151 54.0414C104.037 59.3996 118.341 74.8685 117.782 93.8784C117.252 111.886 112.082 124.207 109.162 128.823M85.6328 64.5248C91.5755 67.6525 100.626 75.7143 103.565 88.2872M102.406 109.953C103.316 107.028 103.908 104.231 104.228 101.566" stroke="#FF5200" stroke-width="3.36"/>
<path id="Vector 22" d="M77.2458 119.039H55.5801C55.813 115.311 57.9563 107.856 64.6657 107.856C71.3751 107.856 85.1666 107.856 91.2237 107.856" stroke="#FF5200" stroke-width="3.36"/>
<path id="Vector 21" d="M122.459 133.081C123.249 135.242 123.17 137.871 122.749 139.997H44.7263C45.0061 135.09 46.5126 132.374 48.1582 130.855C50.0113 129.145 52.3336 128.68 54.1823 128.68H114.986C117.382 128.68 119.016 129.229 120.138 129.994C121.257 130.756 121.998 131.821 122.459 133.081Z" fill="white" stroke="#FF5200" stroke-width="3.36"/>
<circle id="Ellipse 20" cx="104.5" cy="94.5" r="5.82" fill="white" stroke="#FF5200" stroke-width="3.36"/>
<path id="Ellipse 21" d="M77.0753 128.823C76.7303 127.483 76.5469 126.078 76.5469 124.63C76.5469 115.366 84.0566 107.856 93.3204 107.856C102.584 107.856 110.094 115.366 110.094 124.63C110.094 125.912 109.95 127.16 109.678 128.359" stroke="#FF5200" stroke-width="3.36"/>
</g>
</g>
</svg>
