<svg width="168" height="168" viewBox="0 0 168 168" fill="none" xmlns="http://www.w3.org/2000/svg">
<g id="Group 253">
<path id="Oval" d="M166.32 84C166.32 129.464 129.464 166.32 84 166.32C38.5359 166.32 1.68 129.464 1.68 84C1.68 38.5359 38.5359 1.68 84 1.68C129.464 1.68 166.32 38.5359 166.32 84Z" fill="white" stroke="#FF5200" stroke-width="3.36"/>
<g id="Group 252">
<g id="Group 248">
<path id="Ellipse 22" d="M134.321 60.6962C134.321 69.508 127.312 76.5997 118.73 76.5997C110.148 76.5997 103.139 69.508 103.139 60.6962C103.139 56.2831 105.211 50.8655 108.483 44.6494C110.849 40.1556 113.747 35.4121 116.753 30.4911C117.432 29.3796 118.117 28.259 118.802 27.1303C123.067 33.5437 126.789 39.4803 129.526 44.9097C132.585 50.9777 134.321 56.2363 134.321 60.6962Z" fill="white" stroke="#FF5200" stroke-width="3.36"/>
<path id="Ellipse 23" d="M124.158 59.5286C124.158 62.7989 121.507 65.45 118.236 65.45" stroke="#FF5200" stroke-width="3.36"/>
</g>
<g id="Group 249">
<g id="Union">
<mask id="path-4-inside-1_19_1061" fill="white">
<path fill-rule="evenodd" clip-rule="evenodd" d="M64.2263 55.8599H77.6538V63.2741C81.5739 64.1049 85.2308 65.6484 88.4825 67.7626L93.7273 62.5178L103.222 72.0125L97.9771 77.2574C100.091 80.509 101.635 84.1658 102.465 88.0859H109.88V101.513H102.465C101.635 105.433 100.091 109.09 97.9773 112.342L103.223 117.587L93.7279 127.082L88.4828 121.837C85.2311 123.951 81.5741 125.495 77.6538 126.325V133.739H64.2263V126.326C60.3061 125.495 56.649 123.951 53.3972 121.837L48.1528 127.082L38.6581 117.587L43.9024 112.343C41.7881 109.091 40.2446 105.434 39.4138 101.513H32V88.0859H39.4139C40.2447 84.1655 41.7883 80.5084 43.9026 77.2565L38.6587 72.0125L48.1534 62.5178L53.3975 67.762C56.6493 65.6479 60.3062 64.1046 64.2263 63.2739V55.8599Z"/>
</mask>
<path fill-rule="evenodd" clip-rule="evenodd" d="M64.2263 55.8599H77.6538V63.2741C81.5739 64.1049 85.2308 65.6484 88.4825 67.7626L93.7273 62.5178L103.222 72.0125L97.9771 77.2574C100.091 80.509 101.635 84.1658 102.465 88.0859H109.88V101.513H102.465C101.635 105.433 100.091 109.09 97.9773 112.342L103.223 117.587L93.7279 127.082L88.4828 121.837C85.2311 123.951 81.5741 125.495 77.6538 126.325V133.739H64.2263V126.326C60.3061 125.495 56.649 123.951 53.3972 121.837L48.1528 127.082L38.6581 117.587L43.9024 112.343C41.7881 109.091 40.2446 105.434 39.4138 101.513H32V88.0859H39.4139C40.2447 84.1655 41.7883 80.5084 43.9026 77.2565L38.6587 72.0125L48.1534 62.5178L53.3975 67.762C56.6493 65.6479 60.3062 64.1046 64.2263 63.2739V55.8599Z" fill="white"/>
<path d="M77.6538 55.8599H81.0138V52.4999H77.6538V55.8599ZM64.2263 55.8599V52.4999H60.8663V55.8599H64.2263ZM77.6538 63.2741H74.2938V65.9967L76.9572 66.5611L77.6538 63.2741ZM88.4825 67.7626L86.651 70.5795L88.9334 72.0635L90.8584 70.1385L88.4825 67.7626ZM93.7273 62.5178L96.1032 60.1419L93.7273 57.766L91.3514 60.1419L93.7273 62.5178ZM103.222 72.0125L105.598 74.3884L107.974 72.0125L105.598 69.6366L103.222 72.0125ZM97.9771 77.2574L95.6012 74.8815L93.6763 76.8065L95.1601 79.0888L97.9771 77.2574ZM102.465 88.0859L99.1783 88.7824L99.7427 91.4459H102.465V88.0859ZM109.88 88.0859H113.24V84.7259H109.88V88.0859ZM109.88 101.513V104.873H113.24V101.513H109.88ZM102.465 101.513V98.1534H99.7427L99.1783 100.817L102.465 101.513ZM97.9773 112.342L95.1603 110.51L93.6765 112.793L95.6014 114.718L97.9773 112.342ZM103.223 117.587L105.598 119.963L107.974 117.587L105.598 115.211L103.223 117.587ZM93.7279 127.082L91.352 129.458L93.7279 131.833L96.1038 129.458L93.7279 127.082ZM88.4828 121.837L90.8587 119.461L88.9337 117.536L86.6513 119.02L88.4828 121.837ZM77.6538 126.325L76.9572 123.038L74.2938 123.603V126.325H77.6538ZM77.6538 133.739V137.099H81.0138V133.739H77.6538ZM64.2263 133.739H60.8663V137.099H64.2263V133.739ZM64.2263 126.326H67.5863V123.603L64.9228 123.039L64.2263 126.326ZM53.3972 121.837L55.2287 119.02L52.9463 117.536L51.0213 119.461L53.3972 121.837ZM48.1528 127.082L45.7769 129.458L48.1528 131.833L50.5287 129.458L48.1528 127.082ZM38.6581 117.587L36.2822 115.211L33.9063 117.587L36.2822 119.963L38.6581 117.587ZM43.9024 112.343L46.2783 114.719L48.2033 112.794L46.7194 110.511L43.9024 112.343ZM39.4138 101.513L42.7009 100.817L42.1364 98.1534H39.4138V101.513ZM32 101.513H28.64V104.873H32V101.513ZM32 88.0859V84.7259H28.64V88.0859H32ZM39.4139 88.0859V91.4459H42.1365L42.7009 88.7824L39.4139 88.0859ZM43.9026 77.2565L46.7196 79.088L48.2035 76.8056L46.2785 74.8806L43.9026 77.2565ZM38.6587 72.0125L36.2828 69.6366L33.9069 72.0125L36.2828 74.3884L38.6587 72.0125ZM48.1534 62.5178L50.5292 60.1419L48.1534 57.7661L45.7775 60.1419L48.1534 62.5178ZM53.3975 67.762L51.0217 70.1379L52.9466 72.0628L55.229 70.579L53.3975 67.762ZM64.2263 63.2739L64.9228 66.5609L67.5863 65.9965V63.2739H64.2263ZM77.6538 52.4999H64.2263V59.2199H77.6538V52.4999ZM81.0138 63.2741V55.8599H74.2938V63.2741H81.0138ZM90.314 64.9456C86.7234 62.6111 82.6829 60.9053 78.3504 59.9871L76.9572 66.5611C80.4649 67.3045 83.7382 68.6857 86.651 70.5795L90.314 64.9456ZM91.3514 60.1419L86.1066 65.3867L90.8584 70.1385L96.1032 64.8937L91.3514 60.1419ZM105.598 69.6366L96.1032 60.1419L91.3514 64.8937L100.846 74.3884L105.598 69.6366ZM100.353 79.6332L105.598 74.3884L100.846 69.6366L95.6012 74.8815L100.353 79.6332ZM105.752 87.3893C104.834 83.0569 103.128 79.0165 100.794 75.4259L95.1601 79.0888C97.0538 82.0016 98.4349 85.2748 99.1783 88.7824L105.752 87.3893ZM109.88 84.7259H102.465V91.4459H109.88V84.7259ZM113.24 101.513V88.0859H106.52V101.513H113.24ZM102.465 104.873H109.88V98.1534H102.465V104.873ZM100.794 114.173C103.129 110.583 104.834 106.542 105.752 102.21L99.1783 100.817C98.435 104.324 97.054 107.598 95.1603 110.51L100.794 114.173ZM95.6014 114.718L100.847 119.963L105.598 115.211L100.353 109.966L95.6014 114.718ZM100.847 115.211L91.352 124.706L96.1038 129.458L105.598 119.963L100.847 115.211ZM96.1038 124.706L90.8587 119.461L86.107 124.213L91.352 129.458L96.1038 124.706ZM78.3504 129.612C82.6831 128.694 86.7237 126.988 90.3144 124.654L86.6513 119.02C83.7384 120.914 80.465 122.295 76.9572 123.038L78.3504 129.612ZM81.0138 133.739V126.325H74.2938V133.739H81.0138ZM64.2263 137.099H77.6538V130.379H64.2263V137.099ZM60.8663 126.326V133.739H67.5863V126.326H60.8663ZM51.5658 124.654C55.1565 126.989 59.1971 128.694 63.5298 129.613L64.9228 123.039C61.415 122.295 58.1416 120.914 55.2287 119.02L51.5658 124.654ZM50.5287 129.458L55.7731 124.213L51.0213 119.461L45.7769 124.706L50.5287 129.458ZM36.2822 119.963L45.7769 129.458L50.5287 124.706L41.034 115.211L36.2822 119.963ZM41.5265 109.967L36.2822 115.211L41.034 119.963L46.2783 114.719L41.5265 109.967ZM36.1268 102.21C37.045 106.543 38.7508 110.583 41.0855 114.174L46.7194 110.511C44.8254 107.598 43.4442 104.325 42.7009 100.817L36.1268 102.21ZM32 104.873H39.4138V98.1534H32V104.873ZM28.64 88.0859V101.513H35.36V88.0859H28.64ZM39.4139 84.7259H32V91.4459H39.4139V84.7259ZM41.0857 75.4249C38.751 79.0157 37.0451 83.0565 36.1269 87.3893L42.7009 88.7824C43.4443 85.2745 44.8256 82.001 46.7196 79.088L41.0857 75.4249ZM46.2785 74.8806L41.0345 69.6366L36.2828 74.3884L41.5268 79.6323L46.2785 74.8806ZM41.0345 74.3884L50.5292 64.8937L45.7775 60.1419L36.2828 69.6366L41.0345 74.3884ZM45.7775 64.8937L51.0217 70.1379L55.7734 65.3861L50.5292 60.1419L45.7775 64.8937ZM63.5298 59.9869C59.1973 60.905 55.1568 62.6106 51.5661 64.945L55.229 70.579C58.1418 68.6853 61.4151 67.3042 64.9228 66.5609L63.5298 59.9869ZM60.8663 55.8599V63.2739H67.5863V55.8599H60.8663Z" fill="#FF5200" mask="url(#path-4-inside-1_19_1061)"/>
</g>
<circle id="Ellipse 24" cx="70.9401" cy="94.7997" r="21.1468" fill="white" stroke="#FF5200" stroke-width="3.36"/>
</g>
</g>
</g>
</svg>
