<svg width="168" height="168" viewBox="0 0 168 168" fill="none" xmlns="http://www.w3.org/2000/svg">
<g id="product-2">
<path id="Oval" d="M166.32 84C166.32 129.464 129.464 166.32 84 166.32C38.5359 166.32 1.68 129.464 1.68 84C1.68 38.5359 38.5359 1.68 84 1.68C129.464 1.68 166.32 38.5359 166.32 84Z" fill="white" stroke="#FF5200" stroke-width="3.36"/>
<rect id="Rectangle" x="48.7191" y="38.68" width="70.56" height="90.72" rx="5.04" stroke="#FF5200" stroke-width="3.36" stroke-linecap="round" stroke-linejoin="round"/>
<rect id="Rectangle_2" x="59" y="50" width="12" height="13" rx="3.36" stroke="#FF5200" stroke-width="3.36" stroke-linecap="round" stroke-linejoin="round"/>
<rect id="Rectangle_3" x="59" y="78" width="12" height="12" rx="3.36" stroke="#FF5200" stroke-width="3.36" stroke-linecap="round" stroke-linejoin="round"/>
<path id="Line 3" d="M82.3203 53.7601H107.458" stroke="#FF5200" stroke-width="3.36" stroke-linecap="square" stroke-linejoin="round"/>
<path id="Line 3_2" d="M82.3203 58.8002H94.018" stroke="#FF5200" stroke-width="3.36" stroke-linecap="square" stroke-linejoin="round"/>
<path id="Line 3_3" d="M82.3203 81.68H107.458" stroke="#FF5200" stroke-width="3.36" stroke-linecap="square" stroke-linejoin="round"/>
<path id="Line 3_4" d="M82.3203 86.7201H94.018" stroke="#FF5200" stroke-width="3.36" stroke-linecap="square" stroke-linejoin="round"/>
<path id="Line 3_5" d="M82 109H108" stroke="#FF5200" stroke-width="3.36" stroke-linecap="square" stroke-linejoin="round"/>
<path id="Line 4" d="M82 114H99" stroke="#FF5200" stroke-width="3.36" stroke-linecap="square" stroke-linejoin="round"/>
<rect id="Rectangle_4" x="59" y="105" width="12" height="12" rx="3.36" stroke="#FF5200" stroke-width="3.36" stroke-linecap="round" stroke-linejoin="round"/>
</g>
</svg>
