<svg width="12" height="12" viewBox="0 0 12 12" fill="none" xmlns="http://www.w3.org/2000/svg">
<path fill-rule="evenodd" clip-rule="evenodd" d="M0.335617 10.0462C-0.111319 10.4932 -0.111319 11.2178 0.335617 11.6647C0.782554 12.1117 1.50718 12.1117 1.95412 11.6647L6.00009 7.61875L10.0462 11.6649C10.4932 12.1118 11.2178 12.1118 11.6647 11.6649C12.1117 11.2179 12.1117 10.4933 11.6647 10.0464L7.61859 6.00025L11.6651 1.95373C12.1121 1.50679 12.1121 0.782164 11.6651 0.335228C11.2182 -0.111707 10.4936 -0.111708 10.0466 0.335228L6.00009 4.38175L1.95372 0.335382C1.50678 -0.111554 0.782152 -0.111553 0.335216 0.335382C-0.11172 0.782318 -0.111721 1.50694 0.335216 1.95388L4.38159 6.00025L0.335617 10.0462Z" fill="#B3B3B3"/>
</svg>
