<svg width="53" height="62" viewBox="0 0 53 62" fill="none" xmlns="http://www.w3.org/2000/svg">
<g id="Group 245">
<path id="Rectangle 29" d="M43.5 19H49C50.6569 19 52 17.6569 52 16V16C52 14.3431 50.6569 13 49 13H4C2.34315 13 1 14.3431 1 16V16C1 17.6569 2.34315 19 4 19H37" stroke="#FF5200" stroke-width="2"/>
<path id="n" fill-rule="evenodd" clip-rule="evenodd" d="M26.4641 18H40L34.5089 21.6251H26.3726C24.9805 21.6251 23.9593 21.9628 23.3421 23.2877L19.8193 31.1666C18.8012 33.3703 20.9241 33.3703 20.9241 33.3703H26.8429L28.98 28.5544H24.2023L30.5631 24.2886H36.8559L31.2118 37H19.9882C16.4937 37 11.6971 35.247 15.25 27.9952L17.8732 22.1376C19.0727 19.6747 21.3298 18.0362 26.4641 18Z" fill="#FF5200"/>
<path id="Rectangle 30" d="M10 42H4C2.34315 42 1 43.3431 1 45V45C1 46.6569 2.34315 48 4 48H49C50.6569 48 52 46.6569 52 45V45C52 43.3431 50.6569 42 49 42H35" stroke="#FF5200" stroke-width="2"/>
<rect id="Rectangle 27" x="1" y="1" width="51" height="6" rx="3" stroke="#FF5200" stroke-width="2"/>
<rect id="Rectangle 28" x="1" y="55" width="51" height="6" rx="3" stroke="#FF5200" stroke-width="2"/>
<g id="Group 243">
<line id="Line 15" x1="6" y1="7" x2="6" y2="13" stroke="#FF5200" stroke-width="2"/>
<line id="Line 17" x1="6" y1="48" x2="6" y2="54" stroke="#FF5200" stroke-width="2"/>
<line id="Line 16" x1="6" y1="19" x2="6" y2="42" stroke="#FF5200" stroke-width="2"/>
</g>
<g id="Group 242">
<line id="Line 20" x1="48" y1="7" x2="48" y2="13" stroke="#FF5200" stroke-width="2"/>
<line id="Line 19" x1="48" y1="48" x2="48" y2="54" stroke="#FF5200" stroke-width="2"/>
<line id="Line 18" x1="48" y1="19" x2="48" y2="42" stroke="#FF5200" stroke-width="2"/>
</g>
</g>
</svg>
