<svg width="100" height="100" viewBox="0 0 100 100" fill="none" xmlns="http://www.w3.org/2000/svg">
<g id="product-2">
<path id="Oval" d="M99 50C99 77.062 77.062 99 50 99C22.938 99 1 77.062 1 50C1 22.938 22.938 1 50 1C77.062 1 99 22.938 99 50Z" fill="white" stroke="#FF5200" stroke-width="2"/>
<rect id="Rectangle" x="29" y="23" width="42" height="54" rx="3" stroke="#FF5200" stroke-width="2" stroke-linecap="round" stroke-linejoin="round"/>
<path id="Rectangle_2" d="M62.1523 61.4592L77.6523 34.6125L82.8485 37.6125L67.3485 64.4592L60.8498 69.9448L62.1523 61.4592Z" fill="white" stroke="#FF5200" stroke-width="2" stroke-linecap="round" stroke-linejoin="round"/>
<rect id="Rectangle_3" x="35" y="30" width="8" height="8" rx="2" stroke="#FF5200" stroke-width="2" stroke-linecap="round" stroke-linejoin="round"/>
<rect id="Rectangle_4" x="35" y="44" width="8" height="8" rx="2" stroke="#FF5200" stroke-width="2" stroke-linecap="round" stroke-linejoin="round"/>
<path id="Path 2" d="M37.1445 47L39 49L42.9717 45" stroke="#FF5200" stroke-width="2" stroke-linecap="round" stroke-linejoin="round"/>
<path id="Line 3" d="M49 32H63.9629" stroke="#FF5200" stroke-width="2" stroke-linecap="square" stroke-linejoin="round"/>
<path id="Line 3_2" d="M49 35H55.9629" stroke="#FF5200" stroke-width="2" stroke-linecap="square" stroke-linejoin="round"/>
<path id="Line 3_3" d="M49 46H63.9629" stroke="#FF5200" stroke-width="2" stroke-linecap="square" stroke-linejoin="round"/>
<path id="Line 3_4" d="M49 49H55.9629" stroke="#FF5200" stroke-width="2" stroke-linecap="square" stroke-linejoin="round"/>
<path id="Line 3_5" d="M49 60H56.9629" stroke="#FF5200" stroke-width="2" stroke-linecap="square" stroke-linejoin="round"/>
<rect id="Rectangle_5" x="35" y="58" width="8" height="8" rx="2" stroke="#FF5200" stroke-width="2" stroke-linecap="round" stroke-linejoin="round"/>
<path id="Path 2_2" d="M37.1445 61L39 63L42.9717 59" stroke="#FF5200" stroke-width="2" stroke-linecap="round" stroke-linejoin="round"/>
</g>
</svg>
