<svg width="100" height="100" viewBox="0 0 100 100" fill="none" xmlns="http://www.w3.org/2000/svg">
<g id="product-3">
<path id="Oval" d="M99 50C99 77.062 77.062 99 50 99C22.938 99 1 77.062 1 50C1 22.938 22.938 1 50 1C77.062 1 99 22.938 99 50Z" fill="white" stroke="#FF5200" stroke-width="2"/>
<g id="Group 37">
<path id="Stroke 1" d="M24.4487 45C23.9051 47.1115 23.6094 49.327 23.6094 51.6087C23.6094 66.2073 35.4472 78.0435 50.0442 78.0435" stroke="#FF5200" stroke-width="2" stroke-linejoin="round"/>
<path id="Stroke 3" d="M50.0457 25.1739C47.1594 25.1739 44.3821 25.6365 41.7832 26.4907" stroke="#FF5200" stroke-width="2" stroke-linejoin="round"/>
<path id="Stroke 5" d="M37.4771 43.3462C37.0558 45.9368 36.8262 48.7025 36.8262 51.574C36.8262 66.1941 42.7443 78.0435 50.0436 78.0435" stroke="#FF5200" stroke-width="2" stroke-linejoin="round"/>
<path id="Stroke 7" d="M23.5752 51.5748C23.5752 58.8741 35.4246 64.8269 50.0447 64.8269" stroke="#FF5200" stroke-width="2" stroke-linejoin="round"/>
<path id="Stroke 9" d="M50.0439 38.3575C46.538 38.3575 43.1923 38.6978 40.1309 39.3157" stroke="#FF5200" stroke-width="2" stroke-linejoin="round"/>
<path id="Stroke 11" d="M50.0439 25.1738V78.0434" stroke="#FF5200" stroke-width="2" stroke-linejoin="round"/>
<path id="Stroke 13" d="M46.7393 21.8695V18.5652H53.348V21.8695" stroke="#FF5200" stroke-width="2" stroke-linejoin="round"/>
<path id="Stroke 15" d="M50.0439 2V18.5652" stroke="#FF5200" stroke-width="2" stroke-linejoin="round"/>
<path id="Stroke 17" fill-rule="evenodd" clip-rule="evenodd" d="M28.5652 20.2174L31.8696 28.4783L40.1304 31.7826L31.8696 35.087L28.5652 43.3478L25.2609 35.087L17 31.7826L25.2609 28.4783L28.5652 20.2174Z" stroke="#FF5200" stroke-width="2" stroke-linejoin="round"/>
<path id="Stroke 19" d="M50.0432 51.6087H23.6084" stroke="#FF5200" stroke-width="2" stroke-linejoin="round"/>
<path id="Stroke 21" d="M75.608 58.1496C76.1516 56.0364 76.4787 53.8903 76.4787 51.6086C76.4787 37.01 64.6409 25.1738 50.0439 25.1738" stroke="#FF5200" stroke-width="2" stroke-linejoin="round"/>
<path id="Stroke 23" d="M50.0127 78.0435C52.4199 78.0435 54.6784 76.7548 56.6214 74.5012" stroke="#FF5200" stroke-width="2" stroke-linejoin="round"/>
<path id="Stroke 25" d="M62.5782 59.8026C63.0011 57.2186 63.2605 54.476 63.2605 51.6095C63.2605 37.0191 57.311 25.1747 50.0117 25.1747" stroke="#FF5200" stroke-width="2" stroke-linejoin="round"/>
<path id="Stroke 27" d="M76.4779 51.6087C76.4779 44.3093 64.6302 38.3566 50.0117 38.3566" stroke="#FF5200" stroke-width="2" stroke-linejoin="round"/>
<path id="Stroke 29" d="M50.0439 64.8261C53.5499 64.8261 56.8641 64.4511 59.9272 63.8331" stroke="#FF5200" stroke-width="2" stroke-linejoin="round"/>
<path id="Stroke 31" d="M50.0439 78.0434V25.1738" stroke="#FF5200" stroke-width="2" stroke-linejoin="round"/>
<path id="Stroke 33" d="M50.0439 51.6087H76.4787" stroke="#FF5200" stroke-width="2" stroke-linejoin="round"/>
<path id="Stroke 35" fill-rule="evenodd" clip-rule="evenodd" d="M71.5213 59.8695L74.8256 68.1304L83.0865 71.4347L74.8256 74.7391L71.5213 82.9999L68.2169 74.7391L59.9561 71.4347L68.2169 68.1304L71.5213 59.8695Z" stroke="#FF5200" stroke-width="2" stroke-linejoin="round"/>
</g>
</g>
</svg>
