<svg width="219" height="45" viewBox="0 0 219 45" fill="none" xmlns="http://www.w3.org/2000/svg">
<g clip-path="url(#clip0_1_48)">
<path d="M32.3561 29.0455H29.8585C27.7582 29.0455 27.6446 30.7403 27.6446 31.7922V41.6688C27.6446 42.7208 27.7582 44.4156 29.8585 44.4156H32.3561C34.4565 44.4156 34.57 42.7208 34.57 41.6688V36.8766H31.1641V38.5714H31.6182V41.961C31.6182 42.2533 31.4479 42.487 31.1641 42.487C30.9938 42.487 30.71 42.3701 30.71 41.961V31.4416C30.71 31.0325 30.9938 30.9156 31.1641 30.9156C31.4479 30.9156 31.6182 31.1494 31.6182 31.4416V33.9545H34.6267V31.7922C34.57 30.7403 34.4565 29.0455 32.3561 29.0455ZM37.2947 29.0455L35.7621 44.4156H38.6571L38.9409 40.3247H40.36L40.6439 44.4156H43.5389L42.0062 29.0455H37.2947ZM39.0544 38.6299L39.5653 30.974H39.7356L40.2465 38.6299H39.0544ZM50.5778 30.974V29.0455H44.958V30.974H47.5124L44.6742 42.487V44.4156H50.7481V42.4286H47.7395L50.5778 30.974ZM17.881 23.6104C18.5622 25.3636 19.6407 27.1753 20.3219 28.1104C21.3437 26.7662 23.6143 22.7922 24.2955 17.5909C24.6928 14.7273 24.6928 12.1558 23.7846 8.06494C22.8764 3.91558 20.6058 0.525974 20.3219 0C19.811 0.75974 17.9946 3.74026 17.0863 7.01299C16.0645 10.6948 15.951 13.9091 16.2916 17.1234C16.5754 20.3377 17.881 23.6104 17.881 23.6104ZM20.3219 27.0584C19.8678 26.1818 19.1866 24.5455 19.1299 21.974C19.1299 19.5195 20.0949 17.3571 20.3787 16.9481C20.6058 17.4156 21.4572 19.2273 21.5708 21.7987C21.5708 24.1948 20.776 26.1818 20.3219 27.0584ZM17.0863 13.3831C17.1431 11.2208 17.654 9.05844 17.9378 8.06494C18.9596 4.67532 20.0949 2.51299 20.3219 2.22078C20.549 2.57143 21.9681 5.2013 22.7061 8.00649C23.444 10.8117 23.6143 13.4416 23.5575 15.0195C23.5008 16.5974 23.3305 18.2338 23.1034 19.2273C23.217 17.5325 22.9899 15.0779 22.5925 13.2078C22.1952 11.3377 21.1166 8.18182 20.2652 6.72078C19.4705 8.12338 18.5054 10.8117 17.9946 13.2078C17.4837 15.5455 17.4837 18.4091 17.4837 19.2857C17.3134 18.5844 16.9728 16.013 17.0863 13.3831ZM14.8725 33.8377C14.9292 33.8377 14.9292 33.8377 14.8725 33.8377C16.5187 32.1429 19.1866 32.1429 20.8328 33.8377C22.479 35.5325 22.479 38.2792 20.8328 39.974C19.1866 41.6688 17.0863 42.487 14.9292 42.487C12.7722 42.487 10.6719 41.6688 9.02566 39.974C6.13064 36.9935 5.79005 32.4351 8.00389 29.0455C8.28771 28.5779 8.6283 28.1688 9.02566 27.7597C10.6719 26.0649 12.8289 25.2468 14.9292 25.2468V13.6753C6.69829 13.6753 0 20.5714 0 29.0455C0 37.5195 6.69829 44.4156 14.8725 44.4156C19.1866 44.4156 23.0467 42.5455 25.7714 39.5649V29.0455H14.8725V33.8377ZM81.6851 24.4286H78.8468V22.6169H81.2877V21.7987H78.8468V20.0455H81.6851V19.2273H77.9386V25.2468H81.6851V24.4286ZM84.0124 20.9805L86.6804 25.1883H87.4751V19.2273H86.5669V23.4351L83.8989 19.2273H83.1042V25.2468H84.0124V20.9805ZM91.1081 22.7338H92.3569V23.0844C92.3569 23.4935 92.3002 23.7857 92.0731 24.0195C91.846 24.3117 91.5054 24.4286 91.1081 24.4286C90.7675 24.4286 90.4269 24.3117 90.2566 24.0779C89.9728 23.7857 89.916 23.4351 89.916 22.2078C89.916 20.9805 89.9728 20.6883 90.2566 20.3377C90.4837 20.1039 90.7675 19.987 91.1081 19.987C91.7893 19.987 92.1866 20.3961 92.3569 21.039H93.2652C93.0949 19.987 92.3569 19.1688 91.1649 19.1688C90.5404 19.1688 90.0295 19.4026 89.6322 19.8117C89.0645 20.3961 89.0645 21.0974 89.0645 22.2078C89.0645 23.3766 89.0645 24.0195 89.6322 24.6039C90.0295 25.013 90.5404 25.2468 91.1649 25.2468C91.7893 25.2468 92.3002 25.0714 92.7543 24.5455C93.1516 24.1364 93.2652 23.6104 93.2652 22.8506V21.9156H91.1081V22.7338ZM94.7411 25.2468H95.6493V19.2273H94.7411V25.2468ZM100.872 23.4351L98.2037 19.2273H97.409V25.2468H98.3173V21.039L100.985 25.2468H101.78V19.2273H100.872V23.4351ZM103.483 25.2468H107.229V24.4286H104.391V22.6169H106.832V21.7987H104.391V20.0455H107.229V19.2273H103.483V25.2468ZM112.679 19.1688C112.054 19.1688 111.544 19.4026 111.146 19.8117C110.579 20.3961 110.579 21.0974 110.579 22.2078C110.579 23.3766 110.579 24.0195 111.146 24.6039C111.544 25.013 112.054 25.2468 112.679 25.2468C113.303 25.2468 113.814 25.013 114.212 24.6039C114.779 24.0195 114.779 23.3182 114.779 22.2078C114.779 21.039 114.779 20.3961 114.212 19.8117C113.814 19.4026 113.303 19.1688 112.679 19.1688ZM113.53 24.0779C113.303 24.3117 113.019 24.4286 112.679 24.4286C112.338 24.4286 111.998 24.3117 111.827 24.0779C111.544 23.7857 111.487 23.4351 111.487 22.2078C111.487 20.9805 111.544 20.6883 111.827 20.3377C112.054 20.1039 112.338 19.987 112.679 19.987C113.019 19.987 113.36 20.1039 113.53 20.3377C113.814 20.6299 113.871 20.9805 113.871 22.2078C113.871 23.4351 113.814 23.7857 113.53 24.0779ZM116.312 25.2468H117.22V19.2273H116.312V25.2468ZM119.774 24.4286V19.2273H118.866V25.2468H122.556V24.4286H119.774ZM74.1921 29.0455H71.6944C69.5941 29.0455 69.4806 30.7403 69.4806 31.7922V41.6688C69.4806 42.7208 69.5941 44.4156 71.6944 44.4156H74.1921C76.2924 44.4156 76.4059 42.7208 76.4059 41.6688V31.7922C76.3491 30.7403 76.2356 29.0455 74.1921 29.0455ZM73.3974 41.961C73.3974 42.1948 73.2271 42.487 72.9432 42.487C72.7729 42.487 72.4891 42.3701 72.4891 41.961V31.4416C72.4891 31.0325 72.7729 30.9156 72.9432 30.9156C73.2271 30.9156 73.3974 31.1494 73.3974 31.4416V41.961ZM83.7854 39.8571L81.8554 29.0455H77.9953V44.4156H81.0039V34.7727H81.1174L82.6501 44.4156H85.0342L86.5669 34.7727H86.6804V44.4156H89.689V29.0455H85.7154L83.7854 39.8571ZM67.4938 36.5844V31.8507C67.4938 30.7987 67.3802 29.1039 65.2799 29.1039H60.5684V44.4156H63.577V38.7468H63.804L64.8258 44.4156H67.8911L66.4152 38.3961C67.4938 37.987 67.4938 36.9935 67.4938 36.5844ZM64.4852 36.0584C64.4852 36.526 64.2582 36.8182 63.9176 36.8182H63.577V30.974H63.9743C64.3149 30.974 64.542 31.2662 64.542 31.7338V36.0584H64.4852ZM56.8219 29.0455H52.1672V44.4156H55.1757V39.2143H56.8787C58.979 39.2143 59.0925 37.5195 59.0925 36.4675V31.7922C59.0358 30.7403 58.9222 29.0455 56.8219 29.0455ZM56.084 36.526C56.084 36.9935 55.8569 37.2857 55.5163 37.2857H55.119V30.974H55.5163C55.8569 30.974 56.084 31.2662 56.084 31.7338V36.526Z" fill="white"/>
<path d="M142.424 33.6039C143.105 32.7273 146.17 29.1039 146.17 29.1039H143.218C140.607 29.1039 138.62 29.8052 136.974 31.9091C136.293 32.7857 133.228 36.4091 133.228 36.4091H136.18C138.791 36.4091 140.778 35.6493 142.424 33.6039ZM216.048 1.05194C213.437 1.05194 211.45 1.75324 209.804 3.85714C209.123 4.73376 206.057 8.35714 206.057 8.35714H209.009C211.62 8.35714 213.607 7.65584 215.253 5.55194C215.935 4.67532 219 1.05194 219 1.05194H216.048ZM186.871 14.2013C186.133 15.1364 182.386 19.6364 182.386 19.6364C181.024 21.1558 179.378 21.7403 177.221 21.7403H172.85C171.828 21.7403 170.863 21.7987 169.898 21.8571C170.012 21.7403 170.068 21.6234 170.182 21.5065C171.317 20.0454 174.837 15.8377 177.221 12.974C178.413 11.6299 179.832 11.0454 181.648 10.987C184.998 10.987 187.439 10.0519 189.539 7.42207C190.447 6.25324 194.307 1.6948 194.307 1.6948H190.561C187.211 1.6948 184.714 2.62986 182.67 5.25973C182.159 5.90259 180.683 7.65584 179.491 9.05843C178.64 9.93506 177.675 10.2857 176.369 10.2857H172.225C165.697 10.2857 160.816 12.0974 156.785 17.2403C155.026 19.461 147.476 28.461 147.476 28.461H154.969C154.288 29.1039 153.663 29.8636 153.039 30.6818C150.825 33.5454 141.118 45.0584 141.118 45.0584H150.484C158.886 45.0584 165.13 42.7792 170.295 36.1753C171.715 34.3636 179.321 25.3052 179.321 25.3052C180.57 23.9026 182.046 23.3182 183.919 23.2013H185.281C190.504 23.2013 194.364 21.7987 197.599 17.6493C198.962 15.8961 205.036 8.70778 205.036 8.70778H199.189C193.967 8.70778 190.106 10.1104 186.871 14.2013Z" fill="white"/>
<path d="M149.292 10.7533C148.611 11.6299 145.546 15.2533 145.546 15.2533H148.498C151.109 15.2533 153.096 14.552 154.742 12.4481C155.423 11.5714 158.488 7.94806 158.488 7.94806H155.537C152.869 7.94806 150.939 8.7078 149.292 10.7533ZM178.924 32.4935C177.505 34.3052 171.431 41.4935 171.431 41.4935H177.334C182.614 41.4935 186.53 40.0325 189.766 35.8831C191.185 34.0714 197.259 26.8831 197.259 26.8831H191.355C186.133 26.9416 182.159 28.3442 178.924 32.4935ZM208.385 19.2273C205.774 19.2273 203.787 19.9286 202.141 22.0325C201.46 22.9091 198.394 26.5325 198.394 26.5325H201.346C203.957 26.5325 205.944 25.8312 207.59 23.7273C208.271 22.8507 211.337 19.2273 211.337 19.2273H208.385Z" fill="white"/>
<path d="M95.9332 36.4675H95.8196L94.514 29.0454H91.5623V44.4156H94.514V36.9935H94.6276L95.9332 44.4156H98.9417V29.0454H95.9332V36.4675ZM103.994 37.1688H107.059V35.474H103.994V30.6818H107.059V28.987H101.042V44.4156H107.229V42.7208H104.051V37.1688H103.994ZM108.932 44.4156H111.941V37.5195H114.439V35.8247H111.941V30.7402H114.609V29.0454H108.932V44.4156ZM115.801 29.0454V30.7402H117.561V44.4156H120.569V30.7402H122.329V29.0454H115.801Z" fill="white"/>
</g>
<defs>
<clipPath id="clip0_1_48">
<rect width="219" height="45" fill="white"/>
</clipPath>
</defs>
</svg>
