<svg width="172" height="172" viewBox="0 0 172 172" fill="none" xmlns="http://www.w3.org/2000/svg">
<g id="Group 257">
<g id="Group 47">
<g id="product-2">
<path id="Oval" d="M86 170C132.392 170 170 132.392 170 86C170 39.6081 132.392 2 86 2C39.6081 2 2 39.6081 2 86C2 132.392 39.6081 170 86 170Z" fill="white" stroke="#FF5200" stroke-width="3.36"/>
</g>
</g>
<g id="Group 63">
<path id="Vector 7" d="M66.9411 25L40.3823 54.6471V140.5H125.618V25H66.9411Z" stroke="#FF5200" stroke-width="3.36" stroke-linecap="round"/>
<path id="Vector 8" d="M42.2352 54.6471H69.4117V25" stroke="#FF5200" stroke-width="3.36" stroke-linecap="round"/>
</g>
<g id="Group 61">
<g id="Group 62">
<path id="Vector 9" d="M75.3954 106V84.8597H80.3095C86.7999 84.8597 90.9722 89.174 90.9722 96.5083C90.9722 103.411 85.9345 106 80.3095 106H75.3954Z" stroke="#FF5200" stroke-width="3.36" stroke-linecap="round"/>
<path id="Vector 10" d="M97.6482 106V94.5841M111 84.8597H97.6482V94.5841M97.6482 94.5841H106.827" stroke="#FF5200" stroke-width="3.36" stroke-linecap="round"/>
<path id="Vector 11" d="M55.3682 106V95.8527M55.3682 95.8527V84.8599H63.1207C66.1356 84.8599 68.7197 86.0437 68.7197 90.7791C68.7197 95.5144 65.7049 95.8527 62.69 95.8527H55.3682Z" stroke="#FF5200" stroke-width="3.36" stroke-linecap="round"/>
</g>
</g>
</g>
</svg>
