<svg width="172" height="172" viewBox="0 0 172 172" fill="none" xmlns="http://www.w3.org/2000/svg">
<path d="M86 170C132.392 170 170 132.392 170 86C170 39.6081 132.392 2 86 2C39.6081 2 2 39.6081 2 86C2 132.392 39.6081 170 86 170Z" fill="white" stroke="#FF5200" stroke-width="3.36"/>
<rect x="52.7645" y="34.68" width="66.3583" height="106.64" rx="12.32" stroke="#FF5200" stroke-width="3.36"/>
<rect x="62.8349" y="43.9758" width="46.2175" height="25.302" rx="12.32" stroke="#FF5200" stroke-width="3.36"/>
<circle cx="73.9366" cy="55.8521" r="1.93662" fill="#FF5200"/>
<circle cx="86.331" cy="55.8521" r="1.93662" fill="#FF5200"/>
<circle cx="98.7253" cy="55.8521" r="1.93662" fill="#FF5200"/>
<circle cx="85.9436" cy="101.169" r="6.84113" stroke="#FF5200" stroke-width="3.36"/>
<circle cx="41.0141" cy="91.0986" r="22.3341" fill="white" stroke="#FF5200" stroke-width="3.36"/>
<circle cx="36.7536" cy="82.1901" r="4.90451" stroke="#FF5200" stroke-width="3.36"/>
<circle cx="46.0495" cy="100.007" r="4.90451" stroke="#FF5200" stroke-width="3.36"/>
<line x1="49.9487" y1="82.9907" x2="31.3571" y2="101.582" stroke="#FF5200" stroke-width="3.36"/>
<path d="M40.2394 113.563C43.338 121.052 51.3168 133.782 58.4436 124.796C67.3521 113.563 77.0352 121.31 82.845 118.211C87.4929 115.732 87.1056 106.075 86.3309 101.556" stroke="#FF5200" stroke-width="3.36" stroke-linecap="round"/>
</svg>
