<svg width="168" height="168" viewBox="0 0 168 168" fill="none" xmlns="http://www.w3.org/2000/svg">
<path d="M166.32 84C166.32 129.464 129.464 166.32 84 166.32C38.5359 166.32 1.68 129.464 1.68 84C1.68 38.5359 38.5359 1.68 84 1.68C129.464 1.68 166.32 38.5359 166.32 84Z" fill="white" stroke="#FF5200" stroke-width="3.36"/>
<rect x="45.9182" y="38.1625" width="53.64" height="99.64" rx="12.32" transform="rotate(-8.84112 45.9182 38.1625)" stroke="#FF5200" stroke-width="3.36"/>
<path d="M58.1411 36.5851C60.7449 40.9668 62.3102 44.0328 66.9752 43.3072L81.4097 41.062C86.0747 40.3364 85.6466 37.0936 86.7965 32.1279" stroke="#FF5200" stroke-width="3.36"/>
<rect x="81.68" y="63.68" width="46.64" height="46.64" rx="9.32" fill="white" stroke="#FF5200" stroke-width="3.36"/>
<path d="M93 88L105.5 97.5L122.5 82.5" stroke="#FF5200" stroke-width="3.36" stroke-linecap="round"/>
<path d="M93 79.5L105.5 89L122.5 74" stroke="#FF5200" stroke-width="3.36" stroke-linecap="round"/>
</svg>
