<?xml version="1.0" standalone="no"?>
<!DOCTYPE svg PUBLIC "-//W3C//DTD SVG 20010904//EN"
 "http://www.w3.org/TR/2001/REC-SVG-20010904/DTD/svg10.dtd">
<svg version="1.0" xmlns="http://www.w3.org/2000/svg"
 width="700.000000pt" height="700.000000pt" viewBox="0 0 700.000000 700.000000"
 preserveAspectRatio="xMidYMid meet">
<metadata>
Created by potrace 1.14, written by Peter Selinger 2001-2017
</metadata>
<g transform="translate(0.000000,700.000000) scale(0.100000,-0.100000)"
fill="#000000" stroke="none">
<path d="M0 3500 l0 -3500 3500 0 3500 0 0 3500 0 3500 -3500 0 -3500 0 0
-3500z m6301 2668 c-35 -91 -305 -695 -314 -705 -15 -15 -231 -97 -388 -148
-197 -64 -660 -167 -676 -151 -3 3 63 158 146 344 l152 339 113 16 c252 38
412 88 775 243 108 45 197 83 198 84 1 0 -1 -10 -6 -22z m75 -33 c27 -11 34
-19 30 -32 -10 -29 -1294 -2984 -1299 -2990 -3 -3 -22 1 -42 8 -29 11 -36 18
-32 34 2 11 289 675 636 1475 348 800 639 1470 646 1488 16 37 15 37 61 17z
m-2746 -185 c123 -11 357 -48 377 -59 9 -4 -31 -103 -133 -331 -80 -179 -149
-329 -154 -333 -4 -5 -63 1 -131 12 -289 49 -603 64 -839 41 -52 -5 -96 -7
-98 -5 -5 5 286 636 298 649 28 29 465 45 680 26z m-990 -686 c0 -3 -70 -162
-155 -351 -86 -190 -154 -347 -153 -348 2 -2 39 1 83 5 133 15 523 11 678 -5
148 -16 294 -38 303 -47 3 -3 -68 -164 -156 -358 -89 -193 -160 -353 -158
-354 1 -2 78 -13 169 -25 265 -34 436 -41 728 -30 145 5 266 8 267 6 2 -2 -56
-150 -128 -329 l-132 -326 -56 -6 c-30 -3 -174 -9 -320 -12 -213 -5 -289 -3
-390 10 -199 26 -432 69 -436 81 -3 6 59 145 136 309 77 165 138 301 136 303
-8 8 -115 33 -236 55 -114 21 -154 23 -450 22 -214 0 -334 -4 -350 -11 -21 -9
-53 -74 -180 -361 l-155 -351 -65 -11 c-292 -53 -638 -163 -860 -275 -40 -20
-74 -34 -76 -32 -2 2 76 176 173 386 203 438 162 386 370 467 180 71 397 122
732 172 l44 7 159 348 c88 192 157 351 154 354 -7 7 -187 -23 -316 -53 -154
-36 -367 -106 -514 -168 -71 -31 -131 -55 -132 -53 -1 1 71 163 160 359 l161
357 65 30 c191 88 437 163 670 204 220 39 230 41 230 31z m1205 -93 c279 -49
352 -56 605 -53 135 1 288 6 340 10 52 5 97 8 98 6 2 -1 -67 -156 -154 -343
l-158 -340 -66 -8 c-36 -4 -193 -8 -350 -8 -297 0 -306 1 -627 57 -68 11 -123
26 -123 31 0 20 305 666 315 667 6 0 60 -9 120 -19z m1769 -598 c-36 -82 -99
-227 -141 -323 -42 -96 -81 -181 -87 -187 -27 -30 -491 -189 -721 -248 -135
-34 -383 -81 -390 -73 -3 2 68 162 156 355 l161 351 81 11 c226 32 425 81 772
190 121 38 223 70 227 70 4 1 -22 -65 -58 -146z m-1944 -2325 l-155 -103 -265
-5 c-284 -6 -297 -8 -347 -62 -33 -35 -263 -552 -263 -590 1 -74 15 -78 309
-78 138 0 251 -3 251 -6 0 -3 -21 -53 -47 -110 l-46 -104 -231 0 c-303 0 -386
14 -479 77 -84 58 -117 180 -84 310 15 56 158 387 229 526 57 114 151 187 283
221 92 23 92 23 560 25 l439 1 -154 -102z m211 -320 c-11 -24 -62 -140 -115
-258 -56 -125 -96 -227 -96 -246 0 -49 20 -58 140 -64 l108 -5 -37 -82 -36
-83 -215 0 c-228 0 -273 6 -317 45 -26 21 -28 29 -27 92 0 65 6 79 108 303 60
129 119 259 131 288 l24 52 175 0 175 0 -18 -42z m716 30 c-3 -7 -53 -120
-112 -250 -58 -131 -109 -253 -112 -272 -4 -26 0 -39 16 -55 18 -18 33 -21
114 -21 136 0 142 5 231 193 40 84 99 212 132 284 l59 133 133 0 132 0 -14
-32 c-74 -171 -260 -574 -279 -605 -33 -53 -97 -108 -143 -124 -30 -11 -110
-14 -334 -14 -285 0 -296 1 -336 22 -78 42 -113 106 -99 181 3 20 52 138 107
262 55 124 109 244 119 268 l18 42 187 0 c145 0 185 -3 181 -12z m1442 -18
c146 -83 74 -281 -120 -331 -56 -15 -64 -29 -16 -29 42 -1 113 -33 126 -58 15
-29 14 -78 -4 -111 -24 -47 -122 -127 -213 -173 l-85 -43 -368 -3 -369 -3 33
73 c18 40 98 216 177 391 l143 318 326 -3 326 -3 44 -25z m-3684 -1 c-4 -12
-29 -68 -56 -125 l-48 -104 -121 0 c-66 0 -120 3 -120 6 0 3 23 59 51 125 l51
119 125 0 c122 0 124 0 118 -21z"/>
<path d="M5633 1818 c-9 -15 -103 -220 -103 -226 0 -6 61 9 148 38 92 31 144
66 168 111 14 27 14 33 0 53 -17 27 -53 36 -142 36 -39 0 -66 -5 -71 -12z"/>
<path d="M5517 1563 c-17 -28 -164 -363 -159 -363 3 0 75 34 160 76 119 59
167 88 209 129 47 46 54 57 51 85 -5 56 -42 74 -158 78 -54 2 -100 0 -103 -5z"/>
</g>
</svg>
