<?xml version="1.0" encoding="utf-8"?><svg xmlns="http://www.w3.org/2000/svg" xmlns:xlink="http://www.w3.org/1999/xlink"><symbol viewBox="0 0 24 24" id="exit" xmlns="http://www.w3.org/2000/svg"><path fill-rule="evenodd" clip-rule="evenodd" d="M15.99 7.823a.75.75 0 011.061.021l3.49 3.637a.75.75 0 010 1.038l-3.49 3.637a.75.75 0 01-1.082-1.039l2.271-2.367h-6.967a.75.75 0 010-1.5h6.968l-2.272-2.367a.75.75 0 01.022-1.06z"/><path fill-rule="evenodd" clip-rule="evenodd" d="M3.25 4A.75.75 0 014 3.25h9.454a.75.75 0 01.75.75v3a.75.75 0 11-1.5 0V4.75H4.75v14.5h7.954V17a.75.75 0 011.5 0v3a.75.75 0 01-.75.75H4a.75.75 0 01-.75-.75V4z"/></symbol><symbol viewBox="0 0 9 2" id="minus" xmlns="http://www.w3.org/2000/svg"><rect x=".536" width="7.9" height="2" rx="1"/></symbol><symbol viewBox="0 0 9 8" id="plus" xmlns="http://www.w3.org/2000/svg"><path d="M.536 4a1 1 0 011-1h5.9a1 1 0 010 2h-5.9a1 1 0 01-1-1z"/><path d="M4.486 0c.545 0 .987.442.987.987v6.026a.987.987 0 11-1.975 0V.987c0-.545.442-.987.988-.987z"/></symbol><symbol viewBox="0 0 26 26" id="user" xmlns="http://www.w3.org/2000/svg"><path d="M17.672 10.156a4.673 4.673 0 10-9.345.002 4.673 4.673 0 009.345-.002zm-8.125 0A3.45 3.45 0 0113 6.703a3.45 3.45 0 013.453 3.453A3.45 3.45 0 0113 13.61a3.45 3.45 0 01-3.453-3.453zM5.18 21.978a.573.573 0 00.305.081c.203 0 .426-.101.528-.304A8.042 8.042 0 0113 17.672a8.099 8.099 0 017.008 4.083.622.622 0 00.833.223.622.622 0 00.223-.833A9.311 9.311 0 0013 16.453a9.311 9.311 0 00-8.064 4.692.61.61 0 00.244.833z"/></symbol></svg>