<svg width="277" height="56" viewBox="0 0 277 56" fill="none" xmlns="http://www.w3.org/2000/svg">
<path d="M40.9254 35.684H37.7662C35.1096 35.684 34.9661 37.7662 34.9661 39.0586V51.1926C34.9661 52.485 35.1096 54.5671 37.7662 54.5671H40.9254C43.5819 54.5671 43.7255 52.485 43.7255 51.1926V45.3051H39.4176V47.3873H39.992V51.5516C39.992 51.9106 39.7766 52.1978 39.4176 52.1978C39.2022 52.1978 38.8432 52.0542 38.8432 51.5516V38.6278C38.8432 38.1252 39.2022 37.9816 39.4176 37.9816C39.7766 37.9816 39.992 38.2688 39.992 38.6278V41.7151H43.7973V39.0586C43.7255 37.7662 43.5819 35.684 40.9254 35.684ZM47.1719 35.684L45.2333 54.5671H48.895L49.254 49.5412H51.049L51.408 54.5671H55.0697L53.1312 35.684H47.1719ZM49.3976 47.459L50.0438 38.0534H50.2592L50.9054 47.459H49.3976ZM63.9728 38.0534V35.684H56.8647V38.0534H60.0957L56.5057 52.1978V54.5671H64.1882V52.126H60.3829L63.9728 38.0534ZM22.6166 29.0067C23.4782 31.1607 24.8424 33.3865 25.704 34.5353C26.9964 32.8839 29.8683 28.0016 30.7299 21.6115C31.2325 18.0933 31.2325 14.9342 30.0837 9.90824C28.9349 4.81052 26.063 0.64619 25.704 0C25.0578 0.933385 22.7602 4.59513 21.6115 8.61586C20.3191 13.1392 20.1755 17.0881 20.6063 21.0371C20.9653 24.986 22.6166 29.0067 22.6166 29.0067ZM25.704 33.2429C25.1296 32.1659 24.268 30.1555 24.1962 26.9964C24.1962 23.9808 25.4168 21.3243 25.7758 20.8217C26.063 21.3961 27.14 23.6218 27.2836 26.781C27.2836 29.7247 26.2784 32.1659 25.704 33.2429ZM21.6115 16.4419C21.6833 13.7854 22.3295 11.1288 22.6884 9.90824C23.9808 5.74391 25.4168 3.08735 25.704 2.72836C25.9912 3.15915 27.7862 6.3901 28.7195 9.83644C29.6529 13.2828 29.8683 16.5137 29.7965 18.4523C29.7247 20.3909 29.5093 22.4012 29.2221 23.6218C29.3657 21.5397 29.0785 18.5241 28.576 16.2265C28.0734 13.929 26.7092 10.0518 25.6322 8.25687C24.627 9.98004 23.4064 13.2828 22.7602 16.2265C22.1141 19.0985 22.1141 22.6166 22.1141 23.6936C21.8987 22.832 21.4679 19.6729 21.6115 16.4419ZM18.8113 41.5715C18.8831 41.5715 18.8831 41.5715 18.8113 41.5715C20.8935 39.4894 24.268 39.4894 26.3502 41.5715C28.4324 43.6537 28.4324 47.0283 26.3502 49.1104C24.268 51.1926 21.6115 52.1978 18.8831 52.1978C16.1547 52.1978 13.4982 51.1926 11.416 49.1104C7.75428 45.4487 7.32349 39.8484 10.1236 35.684C10.4826 35.1096 10.9134 34.6071 11.416 34.1045C13.4982 32.0223 16.2265 31.0171 18.8831 31.0171V16.8009C8.47227 16.8009 0 25.2732 0 35.684C0 46.0949 8.47227 54.5671 18.8113 54.5671C24.268 54.5671 29.1503 52.2696 32.5967 48.6078V35.684H18.8113V41.5715ZM103.319 30.0119H99.7286V27.7862H102.816V26.781H99.7286V24.627H103.319V23.6218H98.5799V31.0171H103.319V30.0119ZM106.262 25.7758L109.637 30.9453H110.642V23.6218H109.493V28.7913L106.119 23.6218H105.114V31.0171H106.262V25.7758ZM115.237 27.9298H116.817V28.3606C116.817 28.8631 116.745 29.2221 116.458 29.5093C116.171 29.8683 115.74 30.0119 115.237 30.0119C114.806 30.0119 114.376 29.8683 114.16 29.5811C113.801 29.2221 113.729 28.7913 113.729 27.2836C113.729 25.7758 113.801 25.4168 114.16 24.986C114.447 24.6988 114.806 24.5552 115.237 24.5552C116.099 24.5552 116.601 25.0578 116.817 25.8476H117.966C117.75 24.5552 116.817 23.55 115.309 23.55C114.519 23.55 113.873 23.8372 113.37 24.3398C112.652 25.0578 112.652 25.9194 112.652 27.2836C112.652 28.7195 112.652 29.5093 113.37 30.2273C113.873 30.7299 114.519 31.0171 115.309 31.0171C116.099 31.0171 116.745 30.8017 117.319 30.1555C117.822 29.6529 117.966 29.0067 117.966 28.0734V26.9246H115.237V27.9298ZM119.832 31.0171H120.981V23.6218H119.832V31.0171ZM127.587 28.7913L124.212 23.6218H123.207V31.0171H124.356V25.8476L127.73 31.0171H128.735V23.6218H127.587V28.7913ZM130.889 31.0171H135.628V30.0119H132.038V27.7862H135.125V26.781H132.038V24.627H135.628V23.6218H130.889V31.0171ZM142.521 23.55C141.731 23.55 141.085 23.8372 140.582 24.3398C139.864 25.0578 139.864 25.9194 139.864 27.2836C139.864 28.7195 139.864 29.5093 140.582 30.2273C141.085 30.7299 141.731 31.0171 142.521 31.0171C143.311 31.0171 143.957 30.7299 144.459 30.2273C145.177 29.5093 145.177 28.6477 145.177 27.2836C145.177 25.8476 145.177 25.0578 144.459 24.3398C143.957 23.8372 143.311 23.55 142.521 23.55ZM143.598 29.5811C143.311 29.8683 142.952 30.0119 142.521 30.0119C142.09 30.0119 141.659 29.8683 141.444 29.5811C141.085 29.2221 141.013 28.7913 141.013 27.2836C141.013 25.7758 141.085 25.4168 141.444 24.986C141.731 24.6988 142.09 24.5552 142.521 24.5552C142.952 24.5552 143.382 24.6988 143.598 24.986C143.957 25.345 144.029 25.7758 144.029 27.2836C144.029 28.7913 143.957 29.2221 143.598 29.5811ZM147.116 31.0171H148.265V23.6218H147.116V31.0171ZM151.496 30.0119V23.6218H150.347V31.0171H155.014V30.0119H151.496ZM93.8411 35.684H90.682C88.0254 35.684 87.8818 37.7662 87.8818 39.0586V51.1926C87.8818 52.485 88.0254 54.5671 90.682 54.5671H93.8411C96.4977 54.5671 96.6413 52.485 96.6413 51.1926V39.0586C96.5695 37.7662 96.4259 35.684 93.8411 35.684ZM92.8359 51.5516C92.8359 51.8388 92.6205 52.1978 92.2616 52.1978C92.0462 52.1978 91.6872 52.0542 91.6872 51.5516V38.6278C91.6872 38.1252 92.0462 37.9816 92.2616 37.9816C92.6205 37.9816 92.8359 38.2688 92.8359 38.6278V51.5516ZM105.975 48.9668L103.534 35.684H98.6516V54.5671H102.457V42.7203H102.601L104.539 54.5671H107.555L109.493 42.7203H109.637V54.5671H113.442V35.684H108.416L105.975 48.9668ZM85.3689 44.9461V39.1304C85.3689 37.838 85.2253 35.7558 82.5687 35.7558H76.6094V54.5671H80.4147V47.6026H80.7019L81.9943 54.5671H85.8715L84.0047 47.1719C85.3689 46.6693 85.3689 45.4487 85.3689 44.9461ZM81.5635 44.2999C81.5635 44.8743 81.2763 45.2333 80.8455 45.2333H80.4147V38.0534H80.9173C81.3481 38.0534 81.6353 38.4124 81.6353 38.9868V44.2999H81.5635ZM71.8707 35.684H65.9832V54.5671H69.7885V48.177H71.9425C74.599 48.177 74.7426 46.0949 74.7426 44.8025V39.0586C74.6708 37.7662 74.5272 35.684 71.8707 35.684ZM70.9373 44.8743C70.9373 45.4487 70.6501 45.8077 70.2193 45.8077H69.7167V38.0534H70.2193C70.6501 38.0534 70.9373 38.4124 70.9373 38.9868V44.8743Z" fill="white"/>
<path d="M180.143 41.284C181.005 40.207 184.882 35.7555 184.882 35.7555H181.148C177.846 35.7555 175.333 36.617 173.25 39.2018C172.389 40.2788 168.512 44.7303 168.512 44.7303H172.245C175.548 44.7303 178.061 43.7969 180.143 41.284ZM273.266 1.29199C269.964 1.29199 267.451 2.15358 265.368 4.73834C264.507 5.81532 260.63 10.2669 260.63 10.2669H264.363C267.666 10.2669 270.179 9.40526 272.261 6.82051C273.123 5.74352 277 1.29199 277 1.29199H273.266ZM236.362 17.4467C235.428 18.5955 230.69 24.124 230.69 24.124C228.966 25.9908 226.884 26.7088 224.156 26.7088H218.627C217.335 26.7088 216.114 26.7806 214.894 26.8524C215.037 26.7088 215.109 26.5652 215.253 26.4216C216.689 24.6266 221.14 19.4571 224.156 15.939C225.664 14.2876 227.459 13.5696 229.756 13.4978C233.992 13.4978 237.08 12.349 239.736 9.11807C240.885 7.68209 245.767 2.08178 245.767 2.08178H241.029C236.792 2.08178 233.633 3.23056 231.049 6.46151C230.402 7.2513 228.536 9.40526 227.028 11.1284C225.951 12.2054 224.73 12.6362 223.079 12.6362H217.838C209.581 12.6362 203.406 14.862 198.308 21.1803C196.082 23.9086 186.533 34.9657 186.533 34.9657H196.011C195.149 35.7555 194.359 36.6888 193.57 37.694C190.769 41.2122 178.492 55.3565 178.492 55.3565H190.339C200.965 55.3565 208.863 52.5564 215.396 44.4431C217.191 42.2174 226.812 31.0885 226.812 31.0885C228.392 29.3654 230.259 28.6474 232.628 28.5038H234.351C240.957 28.5038 245.839 26.7806 249.932 21.6829C251.655 19.5289 259.337 10.6976 259.337 10.6976H251.942C245.337 10.6976 240.454 12.4208 236.362 17.4467Z" fill="white"/>
<path d="M188.832 13.211C187.97 14.288 184.093 18.7395 184.093 18.7395H187.826C191.129 18.7395 193.642 17.8779 195.724 15.2932C196.586 14.2162 200.463 9.76465 200.463 9.76465H196.729C193.355 9.76465 190.914 10.698 188.832 13.211ZM226.311 39.9202C224.516 42.1459 216.833 50.9772 216.833 50.9772H224.3C230.977 50.9772 235.932 49.1822 240.024 44.0845C241.819 41.8587 249.502 33.0275 249.502 33.0275H242.034C235.429 33.0993 230.403 34.8225 226.311 39.9202ZM263.574 23.6218C260.271 23.6218 257.758 24.4834 255.676 27.0682C254.815 28.1452 250.938 32.5967 250.938 32.5967H254.671C257.974 32.5967 260.487 31.7351 262.569 29.1503C263.431 28.0734 267.308 23.6218 267.308 23.6218H263.574Z" fill="white"/>
<path d="M121.34 44.8026H121.196L119.545 35.6841H115.812V54.5672H119.545V45.4487H119.689L121.34 54.5672H125.145V35.6841H121.34V44.8026ZM131.535 45.6641H135.413V43.582H131.535V37.6945H135.413V35.6123H127.802V54.5672H135.628V52.485H131.607V45.6641H131.535ZM137.782 54.5672H141.587V46.0949H144.746V44.0128H141.587V37.7663H144.962V35.6841H137.782V54.5672ZM146.47 35.6841V37.7663H148.695V54.5672H152.501V37.7663H154.727V35.6841H146.47Z" fill="white"/>
</svg>
