<svg width="242" height="68" viewBox="0 0 242 68" fill="none" xmlns="http://www.w3.org/2000/svg">
<g id="logo">
<g id="Group 41">
<g id="Group">
<g id="Path">
<path d="M106.433 1.10522L81.9932 60.921L106.433 1.10522Z" fill="black"/>
<path d="M106.433 1.10522L81.9932 60.921" stroke="white" stroke-width="1.58762"/>
</g>
<path id="Shape" fill-rule="evenodd" clip-rule="evenodd" d="M99.3028 14.5679L105.297 0H105.295C99.6737 2.61499 95.8377 4.27527 93.7895 4.97324C90.8968 5.84236 87.9357 6.46996 84.9366 6.85033L79.1436 20.551C82.6785 19.9599 86.1771 19.1694 89.6226 18.1832C92.1863 17.4016 95.4117 16.1958 99.3028 14.5679ZM88.0292 42.3703L93.4835 29.1851L83.3659 32.5076C80.0266 33.4694 76.617 34.1676 73.1684 34.5957L67.1073 48.6882C70.7823 48.1812 74.4024 47.3344 77.921 46.1588C81.3473 45.0534 84.7204 43.7892 88.0292 42.3703ZM36.8044 18.2766L36.8039 18.2778L36.8394 18.2737L30.8875 32.33L30.8988 32.2735L30.8736 32.332C27.9152 32.6929 24.9947 33.316 22.1466 34.1941C18.8609 35.1847 15.6687 36.4626 12.6071 38.013L18.7253 23.6543V23.6524L18.7062 23.6562C21.3824 22.2774 24.1821 21.153 27.0685 20.2976C30.2541 19.3627 33.51 18.6868 36.8044 18.2766ZM30.8736 32.332L24.8073 46.4249C28.3868 46.0225 31.9934 45.915 35.5905 46.1035C38.6905 46.2937 41.7524 46.8319 44.7268 47.7106L51.0085 33.1769C48.0245 32.5503 44.9968 32.1529 41.9521 31.9883C38.2606 31.813 34.561 31.9274 30.8874 32.3306L30.8875 32.33L30.8873 32.3304C30.8828 32.3309 30.8782 32.3315 30.8736 32.332ZM36.8044 18.2766L42.4979 5.18764C44.5804 4.90807 46.0714 4.74261 46.9671 4.69126C48.4635 4.57846 49.8759 4.5901 51.2258 4.60122L51.2259 4.60122C51.4235 4.60285 51.6198 4.60447 51.8149 4.60568C55.4244 4.7095 59.0151 5.16685 62.5354 5.97118L56.8813 19.3523C53.3411 18.6352 49.7612 18.1304 46.1608 17.8404C43.0474 17.7712 39.9329 17.916 36.8394 18.2737L36.84 18.2722L36.8044 18.2766ZM6.8275 51.4303L0 67.048C3.07217 65.3409 6.29786 63.9261 9.63458 62.8222C12.6606 61.8275 15.7573 61.0621 18.8983 60.5324L24.8072 46.4228C21.2069 46.8356 17.6463 47.5416 14.1609 48.5338C11.6303 49.3005 9.17244 50.2895 6.81609 51.4893L6.8275 51.4322V51.4303Z" fill="white"/>
<path id="Shape_2" fill-rule="evenodd" clip-rule="evenodd" d="M67.3035 21.3846C63.7909 21.0898 60.3048 20.5725 56.8626 19.8384L50.9631 33.2423C54.6708 34.085 58.4309 34.6778 62.2181 35.0167C65.7707 35.0985 69.327 34.9483 72.8625 34.5679L78.8247 20.9376C74.9964 21.3131 71.1494 21.4624 67.3035 21.3846ZM54.548 48.5429C51.2655 48.3033 48.0001 47.8944 44.767 47.32L39.208 59.9728C42.9705 60.8542 46.7907 61.4688 50.6398 61.8118C54.3846 61.8815 58.13 61.7106 61.8529 61.3002L66.8622 48.1834C62.766 48.5071 58.6562 48.6271 54.548 48.5429Z" fill="white"/>
</g>
<g id="Group 40">
<g id="Group_2">
<g id="Clipped">
<mask id="mask0_1001_27" style="mask-type:luminance" maskUnits="userSpaceOnUse" x="137" y="15" width="26" height="21">
<path id="a" fill-rule="evenodd" clip-rule="evenodd" d="M143.523 35.6974C140.029 35.6974 135.228 33.851 138.781 26.2145L141.41 20.045C142.61 17.454 144.866 15.7267 150.005 15.6902H162.443L156.948 19.5068H149.915C148.518 19.5068 147.501 19.864 146.882 21.258L143.355 29.5565C142.335 31.8776 144.463 31.8776 144.463 31.8776H152.317L150.686 35.6974" fill="white"/>
</mask>
<g mask="url(#mask0_1001_27)">
<path id="Path_2" d="M141.41 20.045L138.781 26.2161C135.228 33.8526 140.029 35.699 143.523 35.699H150.686L152.317 31.8792H144.463C144.463 31.8792 142.335 31.8792 143.355 29.5581L146.882 21.258C147.501 19.864 148.518 19.5068 149.915 19.5068H156.948L162.441 15.6902H150.005C144.866 15.7283 142.612 17.4524 141.41 20.045Z" fill="url(#paint0_linear_1001_27)"/>
</g>
</g>
<g id="Group_3">
<g id="Clipped_2">
<mask id="mask1_1001_27" style="mask-type:luminance" maskUnits="userSpaceOnUse" x="132" y="23" width="6" height="4">
<path id="k" fill-rule="evenodd" clip-rule="evenodd" d="M132 26.7881L133.574 23.0002H137.065L135.46 26.7881" fill="white"/>
</mask>
<g mask="url(#mask1_1001_27)">
<path id="Path_3" d="M133.575 23.0002L131.999 26.7881H135.458L137.064 23.0002H133.575Z" fill="url(#paint1_linear_1001_27)"/>
</g>
</g>
</g>
</g>
<g id="Group_4">
<g id="Clipped_3">
<mask id="mask2_1001_27" style="mask-type:luminance" maskUnits="userSpaceOnUse" x="164" y="22" width="21" height="14">
<path id="d" fill-rule="evenodd" clip-rule="evenodd" d="M168.372 35.7118C165.482 35.7118 163.936 33.6066 165.101 30.9172C165.848 29.2026 168.292 23.3617 168.775 22.2107H174.894C174.667 22.7394 171.768 29.5566 171.385 30.5378C170.939 31.6872 170.853 32.7477 172.389 32.7477H174.141C175.303 32.7477 175.816 31.9396 176.397 30.6299C176.937 29.4169 180.015 22.2107 180.015 22.2107H184.389C184.389 22.2107 181.6 28.8073 180.477 31.4507C179.419 33.9464 178.387 35.7118 175.527 35.7118" fill="white"/>
</mask>
<g mask="url(#mask2_1001_27)">
<path id="Path_4" d="M180.014 22.2107C180.014 22.2107 176.937 29.4169 176.396 30.6314C175.815 31.9412 175.302 32.7493 174.141 32.7493H172.385C170.85 32.7493 170.936 31.6888 171.384 30.5394C171.766 29.5566 174.665 22.741 174.892 22.2107H168.774C168.291 23.3617 165.848 29.2026 165.101 30.9172C163.936 33.6066 165.482 35.7118 168.372 35.7118H175.527C178.385 35.7118 179.417 33.9464 180.476 31.4507C181.781 28.3713 183.085 25.2913 184.388 22.2107H180.014" fill="url(#paint2_linear_1001_27)"/>
</g>
</g>
</g>
<g id="Group_5">
<g id="Clipped_4">
<mask id="mask3_1001_27" style="mask-type:luminance" maskUnits="userSpaceOnUse" x="181" y="22" width="19" height="14">
<path id="f" fill-rule="evenodd" clip-rule="evenodd" d="M186.558 35.7118L186.574 35.7039H181.013L186.733 22.2202H195.512C197.71 22.2202 198.697 22.987 199.116 23.8952C199.575 24.8827 199.353 26.4465 197.932 27.6102C197.062 28.3214 195.998 28.6421 195.116 28.8581C196.508 28.9517 197.54 29.22 197.945 30.0932C198.516 31.3284 197.707 32.6382 195.979 33.9194C194.103 35.3149 192.593 35.7102 192.593 35.7102H186.558V35.7118ZM191.496 24.824L189.797 28.8169C189.797 28.8169 191.345 28.42 192.607 27.9469C195.369 26.9086 195.76 24.824 193.639 24.824H191.496ZM189.632 29.2141L186.958 35.5122C188.27 34.8572 189.572 34.1834 190.864 33.4912C195.242 31.0939 194.139 29.2141 191.673 29.2141H189.629H189.632Z" fill="white"/>
</mask>
<g mask="url(#mask3_1001_27)">
<path id="Shape_3" fill-rule="evenodd" clip-rule="evenodd" d="M186.733 22.2219L181.013 35.7024H182.965L186.571 35.704C186.565 35.7072 188.571 35.7104 192.591 35.712C192.591 35.712 194.099 35.315 195.978 33.9227C197.703 32.6399 198.513 31.3301 197.943 30.0965C197.538 29.2218 196.506 28.9534 195.114 28.8582C195.997 28.6423 197.06 28.3232 197.93 27.6119C199.351 26.4482 199.574 24.8844 199.116 23.8969C198.696 22.9887 197.708 22.2219 195.512 22.2219H186.733ZM191.496 24.8243H193.639C195.76 24.8243 195.37 26.9088 192.607 27.9471C191.345 28.4218 189.797 28.8172 189.797 28.8172L191.496 24.8243ZM191.674 29.2138H189.632L186.958 35.5119C188.27 34.8569 189.572 34.1832 190.864 33.4909C195.244 31.0952 194.141 29.2138 191.674 29.2138Z" fill="url(#paint3_linear_1001_27)"/>
</g>
</g>
</g>
<g id="Group_6">
<g id="Clipped_5">
<mask id="mask4_1001_27" style="mask-type:luminance" maskUnits="userSpaceOnUse" x="152" y="22" width="11" height="14">
<path id="i" fill-rule="evenodd" clip-rule="evenodd" d="M155.218 35.7118C152.352 35.7118 152.014 33.659 152.936 31.4824C153.314 30.5902 156.901 22.2107 156.901 22.2107H162.656C161.417 25.1143 160.197 28.026 158.996 30.9458C158.549 32.0952 159.001 32.735 160.082 32.735H162.978L161.698 35.7118" fill="white"/>
</mask>
<g mask="url(#mask4_1001_27)">
<path id="Path_5" d="M156.9 22.2107C156.9 22.2107 153.312 30.5902 152.936 31.4824C152.015 33.6575 152.351 35.7118 155.217 35.7118H161.698L162.976 32.7366V32.735H160.082C159.002 32.735 158.548 32.0952 158.996 30.9458C159.199 30.4251 161.053 25.9734 162.655 22.2107H156.9Z" fill="url(#paint4_linear_1001_27)"/>
</g>
</g>
</g>
<g id="Group_7">
<g id="Clipped_6">
<mask id="mask5_1001_27" style="mask-type:luminance" maskUnits="userSpaceOnUse" x="109" y="15" width="27" height="21">
<path id="n" fill-rule="evenodd" clip-rule="evenodd" d="M121.699 15.687H135.314L129.791 19.5052H121.606C120.206 19.5052 119.179 19.8609 118.558 21.2564L115.015 29.5549C113.991 31.876 116.126 31.876 116.126 31.876H122.08L124.229 26.8035H119.423L125.822 22.3106H132.151L126.474 35.699H115.184C111.669 35.699 106.845 33.8526 110.418 26.2145L113.057 20.045C114.264 17.4509 116.534 15.7251 121.699 15.687Z" fill="white"/>
</mask>
<g mask="url(#mask5_1001_27)">
<path id="Path_6" d="M109.062 40.6571H343.403V15.687H109.062V40.6571Z" fill="url(#paint5_linear_1001_27)"/>
</g>
</g>
</g>
<path id="Shape_4" fill-rule="evenodd" clip-rule="evenodd" d="M115.098 41.8152C116.171 41.8152 117.136 41.9422 117.997 42.201C118.857 42.4566 119.584 42.8281 120.18 43.3123C120.778 43.7981 121.237 44.3935 121.561 45.0968C121.883 45.8017 122.045 46.5908 122.045 47.4655C122.045 48.8944 121.799 50.101 121.305 51.0917C120.837 52.0501 120.134 52.8748 119.262 53.489C118.392 54.097 117.371 54.5336 116.196 54.8004C114.938 55.076 113.652 55.2102 112.364 55.2004H111.368L109.938 61.8208H105.979L110.143 42.3296C111.007 42.1473 111.881 42.0137 112.761 41.9295C113.586 41.8533 114.364 41.8152 115.098 41.8152ZM114.766 45.5545C114.477 45.5545 114.229 45.564 114.025 45.583L113.412 45.6386L112.186 51.462H113.182C113.896 51.462 114.548 51.4001 115.136 51.2762C115.723 51.154 116.227 50.9476 116.644 50.6618C117.06 50.3761 117.384 50.0109 117.613 49.5632C117.844 49.1171 117.959 48.5693 117.959 47.9232C117.959 47.0659 117.681 46.4578 117.128 46.0974C116.576 45.7354 115.787 45.5545 114.766 45.5545ZM129.901 51.514C130.238 51.5908 130.574 51.6707 130.909 51.7538L132.033 48.7182C131.642 48.5515 131.187 48.4293 130.666 48.3531C130.147 48.2769 129.674 48.2403 129.25 48.2403C128.215 48.229 127.181 48.3344 126.17 48.5547C125.262 48.7659 124.438 48.9897 123.706 49.2263L120.642 61.8161H124.447L126.924 51.6013C127.159 51.5412 127.398 51.495 127.638 51.4632C127.931 51.4204 128.194 51.3997 128.432 51.3997C129.08 51.3997 129.567 51.4378 129.901 51.514Z" fill="#E05206"/>
<g id="Group_8">
<g id="Clipped_7">
<mask id="mask6_1001_27" style="mask-type:luminance" maskUnits="userSpaceOnUse" x="130" y="41" width="27" height="26">
<path id="q" fill-rule="evenodd" clip-rule="evenodd" d="M130.501 41.094H156.862V66.8182H130.501V41.094Z" fill="white"/>
</mask>
<g mask="url(#mask6_1001_27)">
<path id="Shape_5" fill-rule="evenodd" clip-rule="evenodd" d="M155.572 42.0515C155.001 41.888 154.332 41.8086 153.567 41.8086V41.8102C151.557 41.8102 149.998 42.3055 148.892 43.2962C147.783 44.2885 147.018 45.6903 146.593 47.5034L143.937 58.6818C143.8 59.282 143.626 59.9265 143.413 60.6187C143.198 61.311 142.944 61.9905 142.646 62.6573C142.347 63.3241 142.012 63.9559 141.636 64.5545C141.297 65.1117 140.885 65.6211 140.411 66.0691L143.808 66.5565C144.626 65.9405 145.373 64.953 146.056 63.594C146.737 62.2334 147.368 60.333 147.949 57.888L149.504 51.347H153.974L154.742 48.2194H150.246L150.398 47.5526C150.568 46.8366 150.881 46.2365 151.333 45.757C151.781 45.2791 152.477 45.0394 153.413 45.0394C153.786 45.0427 154.159 45.0816 154.525 45.1553C154.892 45.2216 155.249 45.3381 155.585 45.5014L156.862 42.5008C156.573 42.3627 156.142 42.2134 155.572 42.0515ZM135.814 61.8158C134.909 61.8158 134.128 61.6857 133.465 61.4237C132.838 61.1886 132.274 60.8114 131.817 60.3219C131.375 59.8374 131.04 59.2657 130.832 58.6438C130.603 57.9528 130.491 57.2284 130.501 56.5005C130.501 55.5177 130.667 54.5382 130.997 53.557C131.322 52.5925 131.82 51.6955 132.468 50.9105C133.124 50.118 133.932 49.4644 134.844 48.9878C135.781 48.4893 136.854 48.2385 138.062 48.2385C138.947 48.2385 139.726 48.3687 140.398 48.6306C141.03 48.8637 141.599 49.241 142.06 49.7324C142.495 50.2087 142.822 50.7644 143.043 51.4121C143.265 52.0583 143.376 52.7712 143.376 53.5554C143.372 54.5558 143.208 55.5491 142.889 56.4973C142.576 57.4584 142.092 58.355 141.46 59.1439C140.813 59.9417 140.008 60.5965 139.094 61.0665C138.151 61.565 137.057 61.8143 135.814 61.8143V61.8158ZM137.704 51.328C137.141 51.328 136.648 51.4836 136.222 51.7932C135.79 52.11 135.425 52.51 135.149 52.9696C134.856 53.4529 134.636 53.9773 134.498 54.5255C134.36 55.0495 134.287 55.5887 134.282 56.1306C134.282 56.9641 134.417 57.6055 134.69 58.0548C134.962 58.5041 135.455 58.7295 136.171 58.7295C136.733 58.7295 137.227 58.5739 137.654 58.2628C138.078 57.9532 138.435 57.561 138.726 57.0863C139.02 56.6034 139.239 56.0789 139.377 55.5305C139.517 55.0068 139.59 54.4675 139.594 53.9254C139.594 53.0919 139.458 52.4505 139.185 52.0028C138.913 51.5519 138.42 51.328 137.704 51.328Z" fill="#E05206"/>
</g>
</g>
</g>
<path id="Shape_6" fill-rule="evenodd" clip-rule="evenodd" d="M236.418 61.344C237.107 61.6568 238.059 61.8156 239.266 61.8156L240.034 58.6848C239.59 58.6514 239.245 58.5736 238.999 58.4546C238.778 58.359 238.594 58.194 238.475 57.9846C238.37 57.7763 238.322 57.5442 238.335 57.3115C238.347 57.028 238.385 56.7463 238.45 56.47L242 41.8083L238.042 42.418L234.797 55.935C234.609 56.7336 234.512 57.4845 234.503 58.1879C234.482 58.8391 234.632 59.4844 234.938 60.0597C235.235 60.6026 235.73 61.0313 236.418 61.344ZM191.431 46.5379C191.856 46.8555 192.332 47.011 192.859 47.011V47.0126C193.218 47.0126 193.553 46.9444 193.869 46.8078C194.494 46.5442 194.996 46.0542 195.274 45.4361C195.417 45.1202 195.492 44.782 195.492 44.4216C195.492 43.7723 195.277 43.2897 194.852 42.9753C194.426 42.6578 193.95 42.499 193.421 42.499C193.063 42.499 192.728 42.5673 192.412 42.7038C192.097 42.8419 191.821 43.0245 191.583 43.2547C191.342 43.4865 191.151 43.7596 191.008 44.0771C190.864 44.3915 190.791 44.7296 190.791 45.09C190.791 45.7394 191.004 46.222 191.431 46.5379ZM154.372 53.3854C153.987 54.3666 153.796 55.3795 153.796 56.4241C153.792 57.1305 153.895 57.8334 154.102 58.5087C154.298 59.1468 154.634 59.7327 155.087 60.2233C155.578 60.7404 156.182 61.1384 156.851 61.387C157.573 61.6728 158.462 61.8157 159.519 61.8157C160.329 61.8218 161.137 61.7484 161.933 61.5966C162.554 61.4817 163.165 61.3171 163.76 61.1044L163.479 58.2388C162.964 58.4235 162.433 58.5585 161.893 58.642C161.344 58.7307 160.79 58.7758 160.234 58.777C159.365 58.777 158.73 58.6341 158.332 58.3483C157.93 58.0626 157.67 57.5767 157.551 56.8909C158.778 56.8909 159.908 56.8004 160.948 56.621C161.988 56.4416 162.887 56.1511 163.644 55.7494C164.357 55.3887 164.968 54.8535 165.419 54.1935C165.844 53.5569 166.057 52.7821 166.057 51.8661C166.057 51.2945 165.952 50.7849 165.74 50.334C165.527 49.8847 165.227 49.5053 164.846 49.1941C164.462 48.8845 164.016 48.6464 163.503 48.4844C162.993 48.3193 162.439 48.2399 161.844 48.2399C160.703 48.2253 159.574 48.4638 158.537 48.9385C157.575 49.3768 156.71 50.0011 155.992 50.7754C155.294 51.5366 154.744 52.4219 154.372 53.3854ZM158.945 52.0264C159.562 51.4438 160.382 51.1229 161.231 51.131C162.148 51.131 162.609 51.5231 162.609 52.3074C162.606 52.5477 162.544 52.7837 162.429 52.9948C162.312 53.2235 162.072 53.4346 161.715 53.6299C161.358 53.8268 160.855 53.995 160.208 54.1332C159.559 54.2713 158.71 54.357 157.654 54.392C157.859 53.4092 158.287 52.6218 158.945 52.0264ZM169.66 58.8756C170.526 58.8756 171.123 58.7581 171.447 58.52C171.769 58.2818 171.933 58.0278 171.933 57.7484C171.937 57.5881 171.906 57.4288 171.843 57.2816C171.774 57.1392 171.674 57.0139 171.55 56.9149C171.376 56.7768 171.188 56.6576 170.988 56.5592C170.75 56.437 170.442 56.2941 170.068 56.1306C169.658 55.959 169.257 55.7666 168.867 55.5543C168.504 55.3595 168.173 55.1118 167.883 54.8192C167.604 54.5362 167.379 54.2041 167.221 53.8396C167.049 53.4243 166.967 52.9776 166.978 52.5283C166.978 51.2058 167.483 50.1595 168.497 49.3911C169.51 48.6243 170.988 48.2401 172.928 48.2401C174.378 48.2211 175.812 48.5396 177.117 49.1705L175.815 51.89C175.371 51.6783 174.91 51.5062 174.437 51.3757C173.671 51.1486 172.867 51.0784 172.073 51.1693C171.843 51.1931 171.628 51.2455 171.434 51.328C171.251 51.4005 171.089 51.5185 170.963 51.671C170.836 51.8398 170.773 52.0476 170.784 52.2584C170.784 52.5854 170.915 52.8299 171.18 52.9934C171.442 53.157 171.814 53.3538 172.292 53.5809C172.954 53.892 173.508 54.1794 173.951 54.4382C174.394 54.7017 174.746 54.978 175.011 55.2733C175.275 55.567 175.465 55.902 175.586 56.2782C175.705 56.6545 175.764 57.0943 175.764 57.6007C175.763 58.7345 175.235 59.8034 174.335 60.4934C173.84 60.8839 173.211 61.203 172.446 61.4475C171.677 61.6936 170.758 61.8159 169.685 61.8159C169.083 61.8199 168.481 61.7791 167.885 61.6936C167.405 61.6242 166.931 61.5218 166.465 61.3872C166.112 61.2848 165.767 61.158 165.432 61.0078C165.151 60.876 164.935 60.7696 164.781 60.6902L166.083 57.896C166.373 58.058 166.824 58.2612 167.437 58.5073C168.051 58.7533 168.791 58.8756 169.66 58.8756ZM182.508 58.52C182.184 58.7581 181.589 58.8756 180.722 58.8756C179.852 58.8756 179.111 58.7534 178.499 58.5073C177.885 58.2612 177.434 58.058 177.144 57.896L175.842 60.6903C175.996 60.7696 176.213 60.876 176.493 61.0078C176.828 61.1581 177.174 61.2848 177.528 61.3872C177.993 61.5217 178.466 61.6241 178.945 61.6936C179.542 61.779 180.144 61.8199 180.746 61.8159C181.819 61.8159 182.74 61.6936 183.505 61.4475C184.272 61.2031 184.902 60.8839 185.396 60.4934C186.296 59.8039 186.824 58.7347 186.825 57.6007C186.825 57.0943 186.766 56.6545 186.647 56.2782C186.526 55.902 186.336 55.567 186.072 55.2733C185.807 54.978 185.453 54.7017 185.012 54.4382C184.569 54.1794 184.015 53.8921 183.353 53.5809C182.875 53.3538 182.503 53.157 182.241 52.9935C181.976 52.8299 181.844 52.5854 181.844 52.2584C181.833 52.0476 181.897 51.8396 182.024 51.671C182.15 51.5187 182.312 51.4007 182.495 51.328C182.699 51.2437 182.914 51.1901 183.134 51.1693C183.927 51.0786 184.731 51.1488 185.498 51.3757C185.972 51.5062 186.433 51.6783 186.877 51.8901L188.179 49.1705C186.874 48.5395 185.439 48.221 183.989 48.2401C182.049 48.2401 180.571 48.6243 179.558 49.3911C178.545 50.1596 178.037 51.2058 178.037 52.5283C178.027 52.9775 178.109 53.4241 178.28 53.8397C178.44 54.2042 178.666 54.5363 178.945 54.8192C179.234 55.112 179.566 55.3598 179.928 55.5543C180.318 55.7665 180.719 55.9589 181.128 56.1306C181.44 56.264 181.747 56.407 182.049 56.5593C182.248 56.6576 182.436 56.7768 182.61 56.9149C182.734 57.0135 182.834 57.1389 182.903 57.2816C182.967 57.4288 182.998 57.5881 182.994 57.7484C182.994 58.0278 182.83 58.2818 182.508 58.52ZM191.192 61.8156H187.412L190.605 48.2398H194.412L191.192 61.8156ZM201.334 51.3276C200.803 51.3184 200.282 51.4816 199.851 51.7928C199.42 52.1099 199.055 52.5098 198.78 52.9692C198.486 53.4522 198.266 53.9767 198.129 54.5251C197.989 55.0488 197.916 55.5881 197.911 56.1302C197.911 56.9637 198.048 57.6051 198.319 58.0544C198.591 58.5037 199.086 58.7291 199.8 58.7291C200.362 58.7291 200.856 58.5735 201.283 58.2624C201.709 57.9528 202.066 57.5606 202.357 57.0859C202.65 56.6027 202.869 56.0782 203.007 55.5301C203.15 54.9665 203.225 54.4314 203.225 53.925C203.225 53.0915 203.087 52.4501 202.815 52.0008C202.544 51.5515 202.049 51.3276 201.334 51.3276ZM197.094 61.4234C197.757 61.6853 198.54 61.8155 199.444 61.8156C200.687 61.8155 201.781 61.5662 202.725 61.0678C203.638 60.5976 204.444 59.9429 205.091 59.1452C205.722 58.3563 206.207 57.4597 206.519 56.4986C206.843 55.5175 207.005 54.5379 207.005 53.5568C207.005 52.7725 206.894 52.0596 206.672 51.4135C206.453 50.7657 206.124 50.2101 205.691 49.7338C205.23 49.2423 204.661 48.865 204.028 48.632C203.355 48.37 202.577 48.2398 201.691 48.2398C200.483 48.2398 199.408 48.4891 198.475 48.9876C197.563 49.4643 196.755 50.1179 196.098 50.9102C195.45 51.695 194.952 52.5921 194.628 53.5568C194.296 54.5379 194.13 55.5175 194.13 56.4986C194.121 57.2265 194.233 57.9508 194.461 58.6419C194.669 59.2641 195.005 59.8361 195.446 60.3216C195.903 60.811 196.467 61.1881 197.094 61.4234ZM209.839 49.148C210.13 49.0638 210.447 48.967 210.798 48.8574C211.655 48.593 212.536 48.4153 213.429 48.3271C213.965 48.2684 214.572 48.2398 215.255 48.2398C217.264 48.2398 218.644 48.8114 219.393 49.9545C220.143 51.0991 220.271 52.6645 219.776 54.6507L218.039 61.8156H214.234L215.92 54.8015C216.018 54.3801 216.099 53.9547 216.163 53.5266C216.221 53.1138 216.218 52.7534 216.15 52.4407C216.088 52.1398 215.92 51.8711 215.677 51.6834C215.429 51.4913 215.051 51.3928 214.538 51.3928C214.046 51.3928 213.543 51.4437 213.033 51.5453L210.557 61.8172H206.75L209.841 49.148H209.839ZM228.638 51.2645C229.058 51.2625 229.477 51.2955 229.891 51.3629H229.892L228.895 55.2494C228.708 56.0845 228.572 56.9301 228.487 57.7817C228.128 58.1262 227.793 58.3723 227.478 58.5199C227.162 58.6676 226.809 58.7422 226.419 58.7422C225.685 58.7422 225.183 58.5136 224.91 58.0532C224.639 57.5959 224.502 56.9704 224.502 56.183C224.5 54.9437 224.923 53.7412 225.703 52.7775C226.069 52.3335 226.516 51.9619 227.019 51.682C227.52 51.4042 228.062 51.2645 228.638 51.2645ZM232.548 55.8872C232.311 56.806 232.241 57.7602 232.344 58.7037C232.427 59.5664 232.624 60.4142 232.931 61.2248L229.534 61.6932C229.437 61.5058 229.343 61.3169 229.252 61.1264C229.159 60.9253 229.074 60.7203 228.998 60.512C228.522 60.8882 227.994 61.1994 227.414 61.4471C226.798 61.7 226.138 61.8253 225.472 61.8154C224.621 61.8154 223.894 61.6725 223.289 61.3852C222.712 61.1199 222.205 60.7242 221.807 60.2294C221.414 59.728 221.131 59.1498 220.976 58.5322C220.802 57.8527 220.717 57.1537 220.722 56.4524C220.71 54.2779 221.559 52.187 223.085 50.637C223.834 49.8849 224.724 49.2873 225.704 48.8779C226.739 48.4466 227.85 48.2295 228.971 48.2396C229.681 48.2434 230.389 48.2885 231.093 48.3746C231.586 48.4317 232.105 48.527 232.65 48.6572C233.196 48.789 233.714 48.9684 234.211 49.197L232.548 55.8888V55.8872Z" fill="#E05206"/>
</g>
</g>
</g>
<defs>
<linearGradient id="paint0_linear_1001_27" x1="130.683" y1="8.30086" x2="127.634" y2="39.4737" gradientUnits="userSpaceOnUse">
<stop stop-color="#C9CAC8"/>
<stop offset="1" stop-color="#ADAFAF"/>
</linearGradient>
<linearGradient id="paint1_linear_1001_27" x1="131.999" y1="23.0004" x2="131.999" y2="26.788" gradientUnits="userSpaceOnUse">
<stop stop-color="#BDBFB9"/>
<stop offset="1" stop-color="#979794"/>
</linearGradient>
<linearGradient id="paint2_linear_1001_27" x1="153.652" y1="13.3485" x2="151.896" y2="42.1453" gradientUnits="userSpaceOnUse">
<stop stop-color="#C9CAC8"/>
<stop offset="1" stop-color="#ADAFAF"/>
</linearGradient>
<linearGradient id="paint3_linear_1001_27" x1="173.284" y1="13.9806" x2="169.458" y2="39.3215" gradientUnits="userSpaceOnUse">
<stop stop-color="#C9CAC8"/>
<stop offset="1" stop-color="#ADAFAF"/>
</linearGradient>
<linearGradient id="paint4_linear_1001_27" x1="152.479" y1="20.1028" x2="147.355" y2="32.862" gradientUnits="userSpaceOnUse">
<stop stop-color="#C9CAC8"/>
<stop offset="1" stop-color="#ADAFAF"/>
</linearGradient>
<linearGradient id="paint5_linear_1001_27" x1="-7859.82" y1="-1071.54" x2="-7859.84" y2="629.788" gradientUnits="userSpaceOnUse">
<stop stop-color="#E9832C"/>
<stop offset="1" stop-color="#DD4814"/>
</linearGradient>
</defs>
</svg>
