<svg width="109" height="83" viewBox="0 0 109 83" fill="none" xmlns="http://www.w3.org/2000/svg">
<path d="M78.3386 29.1747L76.6571 23.3622C65.2091 16.3649 59.5011 21.3332 47.9008 25.8961C36.955 30.1998 27.5451 29.0241 19.7621 26.2621L29.8502 61.1329C33.1917 62.571 36.8633 63.4655 40.3376 63.8443" stroke="white" stroke-width="2" stroke-linecap="round" stroke-linejoin="round"/>
<path d="M68.7613 14.6257C57.7724 9.35868 52.9845 12.5948 46.0321 17.3104C35.9607 24.1447 19.8533 21.5226 11.0166 17.6036L21.2122 52.9036" stroke="white" stroke-width="2" stroke-linecap="round" stroke-linejoin="round"/>
<path d="M60.4815 5.97139C51.0028 2.98629 46.6038 6.06227 39.7785 10.2296C29.407 16.5636 12.2096 12.8632 3.37427 8.94354L13.5282 44.0976" stroke="white" stroke-width="2" stroke-linecap="round" stroke-linejoin="round"/>
<path fill-rule="evenodd" clip-rule="evenodd" d="M41.5957 36.1717C40.0012 36.359 39.1772 38.1363 39.7565 40.1387L50.2517 76.415C50.8289 78.4102 52.6011 79.8899 54.1899 79.7032L101.853 74.1024C103.447 73.915 104.271 72.1378 103.692 70.1353L93.1968 33.859C92.6174 31.8566 90.8531 30.3835 89.2586 30.5709L41.5957 36.1717Z" stroke="white" stroke-width="2"/>
<path d="M43.4954 66.9294L102.384 57.1319" stroke="white" stroke-width="2"/>
<path d="M44.5374 72.8382L103.426 63.0407" stroke="white" stroke-width="2"/>
<path fill-rule="evenodd" clip-rule="evenodd" d="M92.8916 45.6938C93.8802 49.1285 92.414 52.1805 89.6167 52.5108L88.1696 52.6816C85.3724 53.0118 82.3034 50.4952 81.3149 47.0605C80.3263 43.6258 81.7925 40.5738 84.5897 40.2435L86.0368 40.0727C88.8341 39.7425 91.9031 42.2591 92.8916 45.6938Z" stroke="white" stroke-width="2"/>
</svg>
